<svg width="602" height="371" viewBox="0 0 602 371" fill="none" xmlns="http://www.w3.org/2000/svg">
<g clip-path="url(#clip0_32_30)">
<path d="M595.517 243.525H176.484C174.766 243.523 173.118 242.84 171.902 241.624C170.687 240.409 170.003 238.761 170.001 237.042V6.48319C170.003 4.76434 170.687 3.11644 171.902 1.90102C173.118 0.685612 174.766 0.00194264 176.484 0H595.517C597.236 0.0019461 598.884 0.685623 600.099 1.90103C601.314 3.11645 601.998 4.76434 602 6.48319V237.042C601.998 238.761 601.314 240.409 600.099 241.624C598.884 242.84 597.236 243.523 595.517 243.525Z" fill="#25756A"/>
<path d="M586.677 234.685H185.325C183.606 234.683 181.958 233.999 180.743 232.784C179.527 231.568 178.844 229.92 178.842 228.202V15.324C178.844 13.6052 179.527 11.9573 180.743 10.7418C181.958 9.52643 183.606 8.84276 185.325 8.84082H586.677C588.395 8.84277 590.043 9.52644 591.259 10.7419C592.474 11.9573 593.158 13.6052 593.16 15.324V228.202C593.158 229.92 592.474 231.568 591.259 232.784C590.043 233.999 588.395 234.683 586.677 234.685Z" fill="white"/>
<path d="M297.632 140.19H222.124C221.29 140.189 220.491 139.857 219.901 139.267C219.311 138.678 218.979 137.878 218.978 137.044V58.4019C218.979 57.5678 219.311 56.7681 219.901 56.1782C220.491 55.5884 221.29 55.2566 222.124 55.2556H297.632C298.466 55.2566 299.266 55.5884 299.856 56.1782C300.446 56.7681 300.778 57.5678 300.779 58.4019V137.044C300.778 137.878 300.446 138.678 299.856 139.267C299.266 139.857 298.466 140.189 297.632 140.19ZM222.124 56.5141C221.624 56.5147 221.144 56.7137 220.79 57.0677C220.436 57.4216 220.237 57.9014 220.237 58.4019V137.044C220.237 137.544 220.436 138.024 220.79 138.378C221.144 138.732 221.624 138.931 222.124 138.931H297.632C298.133 138.931 298.613 138.732 298.967 138.378C299.32 138.024 299.52 137.544 299.52 137.044V58.4019C299.52 57.9014 299.32 57.4215 298.967 57.0676C298.613 56.7137 298.133 56.5147 297.632 56.5141H222.124Z" fill="#3F3D56"/>
<path d="M423.755 140.19H348.247C347.413 140.189 346.613 139.857 346.023 139.267C345.433 138.678 345.102 137.878 345.101 137.044V58.4019C345.102 57.5678 345.433 56.7681 346.023 56.1782C346.613 55.5884 347.413 55.2566 348.247 55.2556H423.755C424.589 55.2566 425.389 55.5884 425.978 56.1782C426.568 56.7681 426.9 57.5678 426.901 58.4019V137.044C426.9 137.878 426.568 138.678 425.978 139.267C425.389 139.857 424.589 140.189 423.755 140.19ZM348.247 56.5141C347.746 56.5147 347.266 56.7138 346.913 57.0677C346.559 57.4216 346.36 57.9014 346.359 58.4019V137.044C346.36 137.544 346.559 138.024 346.913 138.378C347.266 138.732 347.746 138.931 348.247 138.931H423.755C424.255 138.931 424.735 138.732 425.089 138.378C425.443 138.024 425.642 137.544 425.642 137.044V58.4019C425.642 57.9014 425.443 57.4216 425.089 57.0677C424.735 56.7138 424.255 56.5147 423.755 56.5141H348.247Z" fill="#3F3D56"/>
<path d="M549.877 140.19H474.369C473.535 140.189 472.735 139.857 472.146 139.267C471.556 138.678 471.224 137.878 471.223 137.044V58.4019C471.224 57.5678 471.556 56.7681 472.146 56.1782C472.735 55.5884 473.535 55.2566 474.369 55.2556H549.877C550.711 55.2566 551.511 55.5884 552.101 56.1782C552.691 56.7681 553.022 57.5678 553.023 58.4019V137.044C553.022 137.878 552.691 138.678 552.101 139.267C551.511 139.857 550.711 140.189 549.877 140.19ZM474.369 56.5141C473.869 56.5147 473.389 56.7137 473.035 57.0676C472.681 57.4216 472.482 57.9014 472.481 58.4019V137.044C472.482 137.544 472.681 138.024 473.035 138.378C473.389 138.732 473.869 138.931 474.369 138.931H549.877C550.378 138.931 550.857 138.732 551.211 138.378C551.565 138.024 551.764 137.544 551.765 137.044V58.4019C551.764 57.9014 551.565 57.4216 551.211 57.0676C550.857 56.7137 550.378 56.5147 549.877 56.5141H474.369Z" fill="#3F3D56"/>
<path d="M245.298 188.27C245.578 188.27 245.856 188.215 246.115 188.108C246.374 188 246.61 187.843 246.808 187.645C247.007 187.447 247.164 187.211 247.272 186.952C247.379 186.693 247.434 186.415 247.434 186.135C247.435 185.854 247.379 185.576 247.272 185.317C247.165 185.058 247.008 184.822 246.809 184.624C246.611 184.426 246.376 184.268 246.117 184.161C245.858 184.053 245.58 183.998 245.299 183.998H226.132C225.565 183.998 225.022 184.223 224.621 184.623C224.221 185.024 223.996 185.567 223.996 186.134C223.996 186.7 224.221 187.244 224.621 187.644C225.022 188.045 225.565 188.27 226.132 188.27H245.298Z" fill="#25756A"/>
<path d="M293.625 175.685C294.191 175.686 294.735 175.462 295.136 175.062C295.538 174.662 295.764 174.119 295.765 173.553C295.766 172.986 295.542 172.442 295.142 172.041C294.742 171.64 294.199 171.414 293.633 171.413H226.132C225.566 171.414 225.024 171.639 224.624 172.04C224.224 172.44 224 172.983 224 173.549C224 174.115 224.224 174.657 224.624 175.058C225.024 175.458 225.566 175.684 226.132 175.685H293.625Z" fill="#25756A"/>
<path d="M371.42 188.27C371.987 188.27 372.53 188.045 372.93 187.644C373.331 187.244 373.556 186.7 373.556 186.134C373.556 185.567 373.331 185.024 372.93 184.623C372.53 184.223 371.987 183.998 371.42 183.998H352.254C351.688 183.998 351.144 184.223 350.744 184.623C350.343 185.024 350.118 185.567 350.118 186.134C350.118 186.7 350.343 187.244 350.744 187.644C351.144 188.045 351.688 188.27 352.254 188.27H371.42Z" fill="#25756A"/>
<path d="M419.747 175.685C420.313 175.684 420.855 175.458 421.255 175.058C421.655 174.657 421.88 174.115 421.88 173.549C421.88 172.983 421.655 172.44 421.255 172.04C420.855 171.639 420.313 171.414 419.747 171.413H352.254C351.688 171.414 351.146 171.639 350.746 172.04C350.346 172.44 350.122 172.983 350.122 173.549C350.122 174.115 350.346 174.657 350.746 175.058C351.146 175.458 351.688 175.684 352.254 175.685H419.747Z" fill="#25756A"/>
<path d="M497.542 188.27C498.109 188.27 498.652 188.045 499.053 187.644C499.453 187.244 499.678 186.7 499.678 186.134C499.678 185.567 499.453 185.024 499.053 184.623C498.652 184.223 498.109 183.998 497.542 183.998H478.377C478.096 183.998 477.818 184.053 477.559 184.16C477.3 184.267 477.064 184.425 476.866 184.623C476.667 184.821 476.51 185.056 476.403 185.316C476.295 185.575 476.24 185.852 476.24 186.133C476.24 186.413 476.295 186.691 476.402 186.95C476.509 187.21 476.666 187.445 476.865 187.644C477.063 187.842 477.298 187.999 477.557 188.107C477.817 188.214 478.094 188.27 478.375 188.27H497.542Z" fill="#25756A"/>
<path d="M545.87 175.685C546.436 175.684 546.978 175.458 547.378 175.058C547.777 174.657 548.002 174.115 548.002 173.549C548.002 172.983 547.777 172.44 547.378 172.04C546.978 171.639 546.436 171.414 545.87 171.413H478.376C478.096 171.412 477.818 171.467 477.559 171.574C477.299 171.681 477.064 171.837 476.865 172.035C476.666 172.233 476.509 172.469 476.401 172.728C476.293 172.987 476.237 173.264 476.237 173.545C476.236 173.825 476.291 174.103 476.398 174.362C476.505 174.622 476.661 174.858 476.859 175.056C477.057 175.255 477.293 175.413 477.552 175.521C477.81 175.628 478.088 175.684 478.369 175.685H545.87Z" fill="#25756A"/>
<path d="M293.625 163.308C294.191 163.308 294.735 163.083 295.136 162.683C295.536 162.282 295.761 161.739 295.762 161.173C295.762 160.606 295.537 160.063 295.137 159.662C294.736 159.261 294.193 159.036 293.627 159.036H226.132C225.565 159.036 225.022 159.261 224.621 159.661C224.221 160.062 223.996 160.605 223.996 161.172C223.996 161.738 224.221 162.282 224.621 162.682C225.022 163.083 225.565 163.308 226.132 163.308H293.625Z" fill="#56BF92"/>
<path d="M419.747 163.308C420.314 163.308 420.857 163.083 421.258 162.682C421.658 162.282 421.883 161.738 421.883 161.172C421.883 160.605 421.658 160.062 421.258 159.661C420.857 159.261 420.314 159.036 419.747 159.036H352.254C351.688 159.036 351.144 159.261 350.744 159.661C350.343 160.062 350.118 160.605 350.118 161.172C350.118 161.738 350.343 162.282 350.744 162.682C351.144 163.083 351.688 163.308 352.254 163.308H419.747Z" fill="#56BF92"/>
<path d="M545.87 163.308C546.436 163.308 546.979 163.083 547.38 162.682C547.781 162.282 548.006 161.738 548.006 161.172C548.006 160.605 547.781 160.062 547.38 159.661C546.979 159.261 546.436 159.036 545.87 159.036H478.376C477.81 159.035 477.267 159.26 476.866 159.661C476.465 160.061 476.24 160.604 476.24 161.171C476.239 161.737 476.464 162.281 476.865 162.681C477.265 163.082 477.808 163.308 478.375 163.308H545.87Z" fill="#56BF92"/>
<path d="M281.543 124.949C282.109 124.948 282.651 124.723 283.051 124.322C283.451 123.922 283.675 123.379 283.675 122.813C283.675 122.247 283.451 121.704 283.051 121.304C282.651 120.903 282.109 120.678 281.543 120.677H238.214C237.933 120.676 237.655 120.731 237.396 120.838C237.137 120.945 236.901 121.102 236.702 121.3C236.503 121.498 236.346 121.733 236.238 121.992C236.13 122.251 236.074 122.529 236.074 122.809C236.073 123.09 236.128 123.368 236.235 123.627C236.342 123.886 236.499 124.122 236.697 124.321C236.895 124.519 237.13 124.677 237.389 124.785C237.648 124.893 237.925 124.949 238.206 124.949H281.543Z" fill="#25756A"/>
<path d="M281.543 112.364C282.109 112.363 282.651 112.137 283.051 111.737C283.451 111.336 283.675 110.794 283.675 110.228C283.675 109.662 283.451 109.119 283.051 108.719C282.651 108.318 282.109 108.093 281.543 108.092H238.214C237.933 108.091 237.655 108.146 237.396 108.253C237.137 108.36 236.901 108.517 236.702 108.715C236.503 108.913 236.346 109.148 236.238 109.407C236.13 109.666 236.074 109.943 236.074 110.224C236.073 110.504 236.128 110.782 236.235 111.042C236.342 111.301 236.499 111.537 236.697 111.736C236.895 111.934 237.13 112.092 237.389 112.2C237.648 112.308 237.925 112.363 238.206 112.364H281.543Z" fill="#25756A"/>
<path d="M259.878 97.6081C267.365 97.6081 273.434 91.539 273.434 84.0524C273.434 76.5657 267.365 70.4966 259.878 70.4966C252.392 70.4966 246.323 76.5657 246.323 84.0524C246.323 91.539 252.392 97.6081 259.878 97.6081Z" fill="#56BF92"/>
<path d="M407.665 124.949C408.231 124.948 408.774 124.723 409.173 124.322C409.573 123.922 409.798 123.379 409.798 122.813C409.798 122.247 409.573 121.704 409.173 121.304C408.774 120.903 408.231 120.678 407.665 120.677H364.336C363.77 120.678 363.228 120.903 362.828 121.304C362.428 121.704 362.204 122.247 362.204 122.813C362.204 123.379 362.428 123.922 362.828 124.322C363.228 124.723 363.77 124.948 364.336 124.949H407.665Z" fill="#25756A"/>
<path d="M407.665 112.364C408.231 112.363 408.774 112.137 409.173 111.737C409.573 111.336 409.798 110.794 409.798 110.228C409.798 109.662 409.573 109.119 409.173 108.719C408.774 108.318 408.231 108.093 407.665 108.092H364.336C363.77 108.093 363.228 108.318 362.828 108.719C362.428 109.119 362.204 109.662 362.204 110.228C362.204 110.794 362.428 111.336 362.828 111.737C363.228 112.137 363.77 112.363 364.336 112.364H407.665Z" fill="#25756A"/>
<path d="M386.001 97.6081C393.487 97.6081 399.556 91.539 399.556 84.0524C399.556 76.5657 393.487 70.4966 386.001 70.4966C378.514 70.4966 372.445 76.5657 372.445 84.0524C372.445 91.539 378.514 97.6081 386.001 97.6081Z" fill="#56BF92"/>
<path d="M533.788 124.949C534.068 124.95 534.346 124.895 534.606 124.788C534.865 124.681 535.101 124.524 535.299 124.326C535.498 124.128 535.656 123.893 535.764 123.634C535.871 123.375 535.927 123.097 535.928 122.817C535.928 122.536 535.873 122.259 535.767 121.999C535.66 121.74 535.503 121.504 535.305 121.305C535.107 121.107 534.872 120.949 534.613 120.841C534.354 120.733 534.076 120.678 533.796 120.677H490.458C489.892 120.678 489.35 120.903 488.95 121.304C488.551 121.704 488.326 122.247 488.326 122.813C488.326 123.379 488.551 123.922 488.95 124.322C489.35 124.723 489.892 124.948 490.458 124.949H533.788Z" fill="#25756A"/>
<path d="M533.788 112.364C534.068 112.364 534.346 112.31 534.606 112.203C534.865 112.096 535.101 111.939 535.299 111.741C535.498 111.543 535.656 111.308 535.764 111.049C535.871 110.79 535.927 110.512 535.928 110.232C535.928 109.951 535.873 109.673 535.767 109.414C535.66 109.155 535.503 108.919 535.305 108.72C535.107 108.521 534.872 108.364 534.613 108.256C534.354 108.148 534.076 108.092 533.796 108.092H490.458C489.892 108.093 489.35 108.318 488.95 108.719C488.551 109.119 488.326 109.662 488.326 110.228C488.326 110.794 488.551 111.336 488.95 111.737C489.35 112.137 489.892 112.363 490.458 112.364H533.788Z" fill="#25756A"/>
<path d="M512.123 97.6081C519.609 97.6081 525.678 91.539 525.678 84.0524C525.678 76.5657 519.609 70.4966 512.123 70.4966C504.637 70.4966 498.568 76.5657 498.568 84.0524C498.568 91.539 504.637 97.6081 512.123 97.6081Z" fill="#56BF92"/>
<path d="M45.3971 362.603H53.4168L57.2317 331.668L45.3958 331.669L45.3971 362.603Z" fill="#FFB6B6"/>
<path d="M43.3513 359.984L59.1447 359.984H59.1454C61.8147 359.984 64.3746 361.044 66.2621 362.932C68.1496 364.819 69.2101 367.379 69.2103 370.049V370.376L43.3518 370.377L43.3513 359.984Z" fill="#002C26"/>
<path d="M72.8708 362.603H80.8905L84.7055 331.668L72.8695 331.669L72.8708 362.603Z" fill="#FFB6B6"/>
<path d="M70.825 359.984L86.6184 359.984H86.6191C89.2884 359.984 91.8483 361.044 93.7358 362.932C95.6233 364.819 96.6838 367.379 96.684 370.049V370.376L70.8255 370.377L70.825 359.984Z" fill="#002C26"/>
<path d="M103.345 227.844L83.7544 348.854L70.6716 348.2L70.9961 237.087L103.345 227.844Z" fill="#002C26"/>
<path d="M50.5305 190.872L98.0637 191.532L103.345 227.844L70.9962 243.029L56.9349 345.583L44.5063 344.929L39.9675 217.94L50.5305 190.872Z" fill="#002C26"/>
<path d="M78.9184 97.1216C86.9398 97.1216 93.4424 90.6187 93.4424 82.5969C93.4424 74.5752 86.9398 68.0723 78.9184 68.0723C70.897 68.0723 64.3943 74.5752 64.3943 82.5969C64.3943 90.6187 70.897 97.1216 78.9184 97.1216Z" fill="#FFB9B9"/>
<path d="M85.7168 105.505L94.1028 116.268L90.1414 198.794L59.113 198.134L53.8315 126.171L60.4331 107.685L62.822 103.542L85.7168 105.505Z" fill="#E4E4E4"/>
<path d="M100.044 147.298L107.306 175.027L100.044 202.755L111.928 218.601L122.491 168.424C122.491 168.424 114.568 127.491 113.908 122.87C113.248 118.248 111.928 117.588 111.928 117.588L106.646 118.248L100.044 147.298Z" fill="#002C26"/>
<path d="M47.23 157.861L42.6085 166.444L41.2878 180.969L43.9286 197.474L34.6863 212.659L25.444 171.065L35.3463 117.588H39.3077L47.23 157.861Z" fill="#002C26"/>
<path d="M66.3577 86.3591L66.0136 92.2306C66.0136 92.2306 61.7536 82.5969 61.0934 72.6938C60.4332 62.7906 71.6564 60.81 78.2582 60.1497C84.86 59.4895 96.0832 64.111 96.0832 69.3927C96.0832 74.6744 84.1999 73.354 79.5786 72.0336C74.9573 70.7131 72.9768 81.9367 72.9768 81.9367L70.336 82.5969L66.3577 86.3591Z" fill="#002C26"/>
<path d="M102.025 156.541L99.3841 181.629L104.666 196.813L107.966 211.338C107.966 211.338 107.966 225.203 94.7628 225.863C81.5592 226.523 43.2685 225.203 43.2685 225.203C43.2685 225.203 37.987 224.542 33.3657 213.979C28.7444 203.416 42.6083 193.512 42.6083 193.512L46.5694 179.648L45.2491 162.482L36.0064 117.588L63.404 103.394L70.3359 171.065L85.1901 105.374L90.1415 109.005L111.267 117.588L102.025 156.541Z" fill="#002C26"/>
<path d="M168.596 371H0V369.622H168.846L168.596 371Z" fill="#3F3D56"/>
</g>
<defs>
<clipPath id="clip0_32_30">
<rect width="602" height="371" fill="white"/>
</clipPath>
</defs>
</svg>
