<svg width="646" height="416" viewBox="0 0 646 416" fill="none" xmlns="http://www.w3.org/2000/svg">
<path d="M468.718 390.28L465.361 348.559L455.771 392.677C455.771 392.677 455.897 403.808 456.215 416H468.502C468.916 402.063 468.718 390.28 468.718 390.28Z" fill="#F2F2F2"/>
<path d="M296.133 405.117C295.189 401.215 294.522 397.252 294.138 393.256L292.796 378.824C292.231 374.871 291.651 371.389 291.068 368.315C286.793 346.397 282.379 345.604 282.379 345.604C282.189 345.75 282.005 345.91 281.815 346.076C281.297 346.548 280.814 347.058 280.37 347.601C273.341 356.536 268.573 379.709 266.067 395.082C264.684 403.574 263.995 409.684 263.995 409.684C263.995 409.684 264.621 412.287 265.475 416H297.551C297.43 412.335 296.955 408.691 296.133 405.117Z" fill="#F2F2F2"/>
<path d="M548.357 0H97.6435C43.9396 0 0 43.9423 0 97.6495V318.351C0 372.058 43.9396 416 97.6435 416H240.495L238.652 407.321C238.652 407.321 233.91 376.722 238.652 352.865C240.183 345.38 241.233 337.805 241.797 330.186C242.39 321.584 243.796 313.058 245.996 304.722C246.121 304.24 246.262 303.763 246.393 303.283C245.236 302.969 244.705 302.717 244.974 302.559C245.715 302.121 246.122 300.781 246.325 299.081C247.588 287.823 249.996 276.724 253.513 265.956C248.722 268.964 245.541 269.283 243.459 268.118C236.141 266.119 239.179 249.659 239.179 249.659C239.179 249.659 243.726 214.058 245.237 201.168C246.106 193.758 257.234 189.56 267.085 187.28C268.123 185.053 268.871 182.81 268.396 180.456C268.364 180.298 268.318 180.144 268.276 179.99C267.023 177.207 264.477 174.918 263.522 172.037C263.098 171.262 262.8 170.424 262.638 169.556C261.792 164.616 266.41 160.349 267.742 155.598C266.384 154.286 265.369 152.659 264.789 150.862C262.759 146.7 263.749 141.704 270.265 137.846C271.566 137.076 272.945 136.397 274.345 135.745C274.858 135.413 275.416 135.157 276.002 134.985C280.664 132.876 285.351 130.835 288.141 126.728C288.86 125.671 289.49 124.444 290.653 123.888C291.201 123.654 291.787 123.522 292.382 123.501C301.367 122.811 309.502 130.516 318.443 129.412C321.152 129.077 323.917 127.938 326.517 128.758C328.226 129.297 329.559 130.609 330.707 131.966C333.832 135.697 336.095 140.071 337.334 144.778C338.574 149.484 338.759 154.406 337.877 159.192C336.743 165.082 333.986 171.154 335.973 176.822C337.432 180.986 341.34 184.366 341.368 188.771C341.391 192.396 338.818 195.288 336.332 198.109C336.655 198.44 336.97 198.779 337.277 199.128C343.352 206.05 342.204 211.957 341.348 214.323L341.348 214.324L338.224 244.473L335.589 264.699C335.589 264.699 334.938 273 328.803 274.821C327.015 275.647 324.674 275.865 321.597 274.929C319.6 274.321 317.917 273.713 316.488 273.123C317.838 277.434 320.162 286.236 319.784 294.779C319.258 306.708 320.838 307.745 320.838 307.745C320.739 307.868 320.627 307.979 320.503 308.076C326.761 321.904 326.818 336.09 320.311 350.272C312.936 366.35 320.838 403.69 320.838 403.69C320.838 403.69 321.401 409.515 321.653 416H434.799C432.999 398.835 430.837 381.65 429.877 379.729C428.293 376.563 430.304 324.392 431.054 306.271C430.721 306.187 430.395 306.101 430.088 306.013C429.553 305.859 429.072 305.699 428.628 305.536C428.605 306.458 428.703 307.379 428.918 308.276C429.584 309.83 427.986 310.973 425.272 311.752C426.851 319.456 428.801 333.792 422.204 336.57C415.419 339.427 415.283 322.071 415.655 313.024C414.8 313.055 413.941 313.072 413.093 313.072C404.942 313.072 415.491 218.6 415.012 212.366C414.532 206.132 418.848 180.716 418.848 180.716C418.848 180.716 420.286 175.441 424.602 174.481C428.918 173.522 449.537 161.534 449.537 161.534C450.697 159.904 452.163 158.516 453.853 157.448V156.738C454.39 156.237 454.962 155.774 455.564 155.353C455.313 151.163 454.746 145.757 454.333 142.105C452.015 139.743 450.449 136.747 449.833 133.495C448.95 132.806 448.111 132.061 447.323 131.265C445.343 128.994 444.207 126.11 444.107 123.099C444.019 120.109 444.451 117.126 445.385 114.283C445.629 113.339 446.003 112.433 446.496 111.591C447.174 110.615 448.025 109.772 449.007 109.102C449.298 108.886 449.599 108.684 449.898 108.48C450.534 107.245 451.466 106.187 452.611 105.401C455.059 103.794 458.208 103.925 461.135 103.998C461.179 103.999 461.223 103.999 461.268 103.999C461.81 103.912 462.355 103.839 462.902 103.782C463.222 103.719 463.516 103.564 463.749 103.335C463.982 103.107 464.143 102.816 464.213 102.498C464.609 102.878 465.006 103.259 465.402 103.64C465.996 103.631 466.59 103.641 467.184 103.67C467.447 103.068 467.756 102.488 468.108 101.934C468.325 102.553 468.542 103.173 468.759 103.792C469.356 103.856 469.95 103.936 470.541 104.038C471.008 103.668 471.474 103.298 471.94 102.927C472.043 102.845 472.414 104.059 472.601 104.475C472.922 104.558 473.242 104.645 473.559 104.743C474.055 104.721 474.605 104.628 474.911 104.633C476.598 104.576 478.267 104.992 479.73 105.835C481.007 106.764 482.055 107.973 482.793 109.37C484.676 112.351 485.846 115.727 486.211 119.234C487.127 120.502 487.773 121.945 488.108 123.473C488.9 128.287 484.325 132.309 483.419 137.103C482.935 139.661 483.487 142.493 482.184 144.746C481.614 145.654 480.867 146.437 479.988 147.049C479.468 147.437 478.926 147.794 478.364 148.119C478.394 151.018 478.727 153.907 479.357 156.738L479.974 159.104C480.933 159.796 481.968 160.595 483.104 161.534C483.104 161.534 496.53 167.288 501.325 170.165C505.541 172.695 510.124 173.004 511.497 176.299L511.875 176.4C511.875 176.4 516.67 229.63 517.15 238.741C517.629 247.853 523.383 303.96 522.424 306.358C522.069 307.245 519.808 308.264 517.078 309.074C518.671 316.357 521.244 332.196 514.272 335.131C507.205 338.107 507.351 319.157 507.772 310.504C506.83 310.419 506.212 310.172 506.121 309.715C506.043 309.325 505.793 307.564 505.431 304.88C504.834 304.973 504.215 305.069 503.555 305.169C503.423 305.189 503.283 305.21 503.149 305.23C509.228 324.355 495.763 375.076 493.174 385.004C491.82 390.193 490.361 403.02 489.045 416H548.356C602.06 416 646 372.058 646 318.351V97.6495C646 43.9423 602.06 0 548.357 0Z" fill="#F2F2F2"/>
<path d="M144.627 175.939C180.761 175.939 210.053 149.281 210.053 116.397C210.053 83.5133 180.761 56.8556 144.627 56.8556C108.493 56.8556 79.2004 83.5133 79.2004 116.397C79.2004 149.281 108.493 175.939 144.627 175.939Z" fill="#002C26"/>
<path d="M252.408 310.967C252.408 310.967 274.447 295.815 274.447 288.927C274.447 282.04 289.598 237.272 297.863 257.245C306.127 277.219 286.155 305.457 286.155 305.457C286.155 305.457 264.116 345.404 251.031 352.291C237.946 359.179 226.926 355.046 226.926 355.046V336.45L239.517 317.815C240.942 315.706 242.862 313.979 245.11 312.785C247.357 311.591 249.863 310.967 252.408 310.967Z" fill="#FFB9B9"/>
<path d="M189.767 205.477C189.767 205.477 222.794 215.92 226.238 220.742C229.681 225.563 231.059 217.298 240.7 248.98C250.342 280.662 252.753 311.311 252.753 311.311C252.753 311.311 228.993 319.232 231.747 350.225C234.502 381.218 227.615 414.967 227.615 414.967H219.017L200.067 356.424L222.794 267.576C222.794 267.576 190.486 212.94 189.767 205.477Z" fill="#25756A"/>
<path d="M178.717 176.662C201.539 176.662 220.039 158.161 220.039 135.338C220.039 112.515 201.539 94.0132 178.717 94.0132C155.896 94.0132 137.396 112.515 137.396 135.338C137.396 158.161 155.896 176.662 178.717 176.662Z" fill="#FFB9B9"/>
<path d="M194.558 166.331C194.558 166.331 182.85 204.901 193.18 210.41C203.511 215.92 215.219 240.715 215.219 240.715L197.312 260.689H155.99L137.396 240.026L129.82 204.901L140.15 196.636C140.15 196.636 151.17 169.086 151.17 154.622C151.17 140.159 194.558 166.331 194.558 166.331Z" fill="#FFB9B9"/>
<path d="M198.001 209.033C198.001 209.033 189.737 206.967 194.558 215.232C199.378 223.497 204.199 238.649 186.982 239.338C169.764 240.027 152.547 231.073 147.037 212.477C141.528 193.881 139.462 195.258 137.396 195.947C135.329 196.636 113.291 219.364 113.291 219.364L120.867 262.066L123.622 414.967H224.172C224.172 414.967 228.304 370.888 221.417 360.556C214.53 350.225 227.615 324.053 227.615 324.053C227.615 324.053 239.323 306.146 230.37 271.709C221.417 237.272 201.445 209.033 198.001 209.033Z" fill="#56BF92"/>
<path d="M142.216 195.947C142.216 195.947 131.886 191.126 122.933 199.391C113.98 207.656 94.0075 214.543 94.0075 218.675C94.0075 222.808 111.225 340.583 99.5171 361.245C87.8092 381.907 75.4126 414.967 75.4126 414.967H132.859C132.859 414.967 142.216 380.53 151.858 361.934C161.5 343.338 160.811 290.993 158.056 275.152C155.302 259.311 142.216 195.947 142.216 195.947Z" fill="#25756A"/>
<path d="M81.6109 378.464L84.9648 414.967H122.187L118.801 369.51L81.6109 378.464Z" fill="#FFB9B9"/>
<path d="M251.031 359.179L259.984 414.967H459.018L476.236 302.702L251.031 359.179Z" fill="#002C26"/>
<path d="M483.811 295.126L485.877 305.457L228.304 367.444V358.49L483.811 295.126Z" fill="#002C26"/>
<path d="M374.997 313.722L373.619 325.431L388.771 323.364L382.572 311.656L374.997 313.722Z" fill="#002C26"/>
<path d="M291.664 195.258C291.664 195.258 321.967 193.192 330.231 216.609C338.496 240.026 357.779 282.04 365.355 288.238C372.931 294.437 381.195 310.967 379.818 316.477" stroke="#002C26" stroke-width="5" stroke-miterlimit="10"/>
<path d="M296.141 194.914C296.141 198.147 292.703 200.768 287.188 200.768C281.672 200.768 278.923 198.147 278.923 194.914C278.923 191.681 281.672 189.06 287.188 189.06C292.703 189.06 296.141 191.681 296.141 194.914Z" fill="#56BF92"/>
<path d="M245.177 302.358C245.177 302.358 250.342 280.662 240.7 248.98C231.059 217.298 229.681 225.563 226.238 220.742C222.794 215.92 189.767 205.477 189.767 205.477C190.003 207.929 193.65 215.475 198.441 224.502C197.579 221.248 196.272 218.129 194.558 215.232C189.737 206.967 198.001 209.033 198.001 209.033C201.445 209.033 221.417 237.271 230.37 271.709C239.323 306.146 227.615 324.053 227.615 324.053L245.177 302.358Z" fill="#25756A"/>
<path d="M190.081 205.245C190.081 205.245 194.158 220.713 197.629 222.966C201.1 225.219 221.685 246.607 221.685 246.607L219.006 229.351L207.987 212.821L205.056 210.694L190.081 205.245Z" fill="#25756A"/>
<path opacity="0.1" d="M98.484 252.768L99.4442 217.298C99.4442 217.298 76.79 226.94 74.7239 268.265C72.6578 309.589 78.1674 387.417 85.7431 388.106C93.3188 388.795 129.131 380.53 129.131 380.53C129.131 380.53 134.641 280.662 132.575 267.576C130.509 254.49 98.484 252.768 98.484 252.768Z" fill="black"/>
<path d="M100.206 217.298H94.6233C94.6233 217.298 71.9691 226.94 69.903 268.265C67.8369 309.589 73.3465 387.417 80.9222 388.106C88.4979 388.795 124.31 380.53 124.31 380.53C124.31 380.53 129.82 280.662 127.754 267.576C125.688 254.49 100.206 217.298 100.206 217.298Z" fill="#25756A"/>
<path d="M129.475 172.185C153.058 172.185 172.175 150.754 172.175 124.318C172.175 97.8813 153.058 76.4503 129.475 76.4503C105.893 76.4503 86.7761 97.8813 86.7761 124.318C86.7761 150.754 105.893 172.185 129.475 172.185Z" fill="#002C26"/>
<path d="M160.123 163.232C164.877 163.232 168.731 157.527 168.731 150.49C168.731 143.453 164.877 137.748 160.123 137.748C155.368 137.748 151.514 143.453 151.514 150.49C151.514 157.527 155.368 163.232 160.123 163.232Z" fill="#FFB9B9"/>
<path d="M86.7761 111.576C106.174 111.576 121.9 95.8498 121.9 76.4503C121.9 57.0508 106.174 41.3245 86.7761 41.3245C67.3779 41.3245 51.6525 57.0508 51.6525 76.4503C51.6525 95.8498 67.3779 111.576 86.7761 111.576Z" fill="#002C26"/>
<path d="M91.3159 104.59C86.2133 107.187 80.5535 108.496 74.8291 108.405C69.1048 108.314 63.4895 106.824 58.4723 104.067C53.4551 101.309 49.1881 97.3663 46.0428 92.5823C42.8976 87.7983 40.9694 82.3179 40.4263 76.6183C39.6763 81.5382 39.9803 86.5614 41.3183 91.3549C42.6563 96.1485 44.9977 100.603 48.1874 104.423C51.377 108.243 55.3421 111.342 59.8198 113.513C64.2974 115.685 69.1855 116.88 74.16 117.02C79.1346 117.16 84.0819 116.24 88.6743 114.323C93.2667 112.406 97.3993 109.534 100.798 105.899C104.197 102.264 106.784 97.9478 108.389 93.2369C109.994 88.5259 110.579 83.5277 110.106 78.5734C109.27 84.0924 107.129 89.3323 103.861 93.8573C100.593 98.3824 96.2921 102.062 91.3159 104.59Z" fill="#002C26"/>
<path d="M67.5068 82.2561C63.9798 77.7462 61.6088 72.4423 60.6001 66.8065C59.5914 61.1706 59.9757 55.3736 61.7195 49.9202C63.4633 44.4668 66.5137 39.5224 70.6051 35.5175C74.6965 31.5127 79.7049 28.5688 85.1941 26.9423C80.2219 27.15 75.3507 28.4122 70.9032 30.6451C66.4557 32.878 62.5335 36.0306 59.3966 39.8941C56.2596 43.7576 53.9794 48.2437 52.7073 53.0551C51.4351 57.8665 51.1999 62.8934 52.0173 67.8026C52.8347 72.7118 54.686 77.3912 57.4486 81.5307C60.2112 85.6703 63.8219 89.1754 68.0415 91.8138C72.261 94.4523 76.9931 96.1638 81.9242 96.8349C86.8552 97.506 91.8725 97.1215 96.6437 95.7067C91.0672 95.9454 85.5143 94.8494 80.4465 92.51C75.3788 90.1705 70.9426 86.6551 67.5068 82.2561Z" fill="#002C26"/>
<path d="M181.128 121.218C194.821 121.218 205.921 113.201 205.921 103.311C205.921 93.4213 194.821 85.4039 181.128 85.4039C167.435 85.4039 156.335 93.4213 156.335 103.311C156.335 113.201 167.435 121.218 181.128 121.218Z" fill="#002C26"/>
</svg>
