<svg width="50" height="40" viewBox="0 0 50 40" fill="none" xmlns="http://www.w3.org/2000/svg">
<rect width="50" height="40" fill="#F7C103"/>
<path d="M35.5 10H15.5C14.125 10 13.0125 11.125 13.0125 12.5L13 27.5C13 28.875 14.125 30 15.5 30H35.5C36.875 30 38 28.875 38 27.5V12.5C38 11.125 36.875 10 35.5 10ZM34.25 27.5H16.75C16.0625 27.5 15.5 26.9375 15.5 26.25V15L24.175 20.425C24.9875 20.9375 26.0125 20.9375 26.825 20.425L35.5 15V26.25C35.5 26.9375 34.9375 27.5 34.25 27.5ZM25.5 18.75L15.5 12.5H35.5L25.5 18.75Z" fill="black"/>
</svg>
