<?xml version="1.0" standalone="no"?>
<svg viewBox="0 0 200 200" xmlns="http://www.w3.org/2000/svg">
  <path fill="#BAE6FF" d="M46,-79.6C58.9,-72.2,68.3,-58.5,74.1,-44.2C80,-29.9,82.3,-14.9,79,-1.9C75.6,11.1,66.6,22.2,57.4,30.6C48.2,39.1,38.7,44.9,29.1,49.6C19.5,54.3,9.8,57.8,-3.3,63.6C-16.5,69.4,-32.9,77.4,-45.5,74.5C-58,71.5,-66.7,57.5,-74.5,43.3C-82.3,29,-89.2,14.5,-89.1,0C-89.1,-14.4,-82.1,-28.9,-74.3,-43.2C-66.6,-57.5,-58,-71.6,-45.5,-79.3C-33,-87,-16.5,-88.3,0,-88.3C16.5,-88.3,33.1,-87.1,46,-79.6Z" transform="translate(100 100)" />
</svg>
