<svg width="600" height="600" viewBox="0 0 600 600" fill="none" xmlns="http://www.w3.org/2000/svg">
<path d="M600 600H0V3.05474e-05H600V600Z" fill="white"/>
<path d="M470.712 461.635C461.482 471.351 452.751 477.616 445.85 482.567C364.747 540.76 268.781 523.797 248.385 519.655C218.267 513.537 160.049 501.713 117.959 452.216C54.28 377.33 64.1958 259.35 113.589 181.472C122.624 167.225 170.35 88.1594 267.349 75.4802C326.054 67.8063 394.483 83.2818 444.039 124.8C548.059 211.949 540.653 388.003 470.712 461.635" fill="url(#paint0_linear_110_425)"/>
<path d="M81.3342 226.832C80.8913 226.629 80.5823 226.184 80.5805 225.675C80.5739 223.993 80.603 222.282 80.6667 220.59C80.6929 219.896 81.2858 219.364 81.9916 219.401C83.7029 219.484 83.1199 221.156 83.1372 225.708C83.1405 226.404 82.57 226.962 81.8636 226.951C81.6751 226.949 81.4959 226.907 81.3342 226.832Z" fill="#56BF92" fill-opacity="0.44"/>
<path d="M268.82 121.844C260.462 117.047 258.746 117.358 259.567 115.635C260.09 114.544 261.421 115.059 261.267 115.056C264.256 116.479 267.22 118.034 270.078 119.672C270.692 120.024 270.909 120.796 270.561 121.396C270.23 121.968 269.475 122.208 268.82 121.844ZM235.208 107.133C235.373 106.461 236.062 106.053 236.748 106.226C239.943 107.031 243.152 107.968 246.286 109.014C247.896 109.553 247.111 111.937 245.504 111.4C242.432 110.374 239.287 109.454 236.158 108.666C235.462 108.492 235.046 107.801 235.208 107.133V107.133ZM289.567 136.706C282.332 130.325 280.606 130.297 281.767 128.788C282.189 128.238 282.99 128.14 283.556 128.563C286.19 130.548 288.78 132.66 291.254 134.842C292.524 135.961 290.842 137.829 289.567 136.706ZM209.696 103.651C209.715 102.956 210.304 102.419 211.011 102.45C214.294 102.595 217.619 102.872 220.892 103.271C222.577 103.483 222.298 105.977 220.621 105.772C217.414 105.38 214.156 105.11 210.94 104.966C210.235 104.935 209.677 104.348 209.696 103.651ZM184.829 106.317C184.457 106.145 184.171 105.804 184.093 105.379C183.969 104.691 184.431 104.044 185.125 103.934C188.36 103.415 191.659 103.016 194.931 102.749C195.632 102.689 196.26 103.207 196.329 103.9C196.401 104.593 195.888 105.202 195.186 105.259C191.981 105.521 188.748 105.912 185.58 106.42C185.316 106.464 185.056 106.422 184.829 106.317V106.317ZM160.138 112.902C159.847 112.768 159.605 112.528 159.477 112.211C159.213 111.561 159.53 110.834 160.186 110.585C163.24 109.427 166.378 108.375 169.511 107.457C170.185 107.259 170.901 107.639 171.113 108.307C171.325 108.975 170.952 109.676 170.279 109.873C167.208 110.772 164.133 111.804 161.14 112.939C160.804 113.065 160.444 113.043 160.138 112.902V112.902ZM136.853 123.841C136.462 123.256 136.622 122.476 137.21 122.103C139.951 120.354 142.797 118.695 145.669 117.167C147.147 116.384 148.392 118.601 146.914 119.389C144.1 120.886 141.311 122.512 138.625 124.224C138.038 124.6 137.244 124.428 136.853 123.841ZM117.171 139.8C116.668 139.302 116.663 138.505 117.16 138.02C119.471 135.754 121.905 133.551 124.395 131.471C125.676 130.404 127.348 132.337 126.068 133.406C123.629 135.443 121.243 137.601 118.978 139.82C118.482 140.306 117.672 140.298 117.171 139.8V139.8ZM100.909 157.697C102.691 155.006 104.605 152.352 106.6 149.808C107.629 148.498 109.657 150.065 108.634 151.37C106.68 153.862 104.804 156.463 103.058 159.097C102.14 160.485 99.9935 159.078 100.909 157.697ZM89.1469 180.293C90.3386 177.273 91.673 174.246 93.0687 171.4C93.8165 169.868 96.0946 171.058 95.3749 172.525C93.986 175.365 92.6989 178.286 91.5325 181.242C91.2781 181.886 90.5377 182.196 89.8792 181.934C89.2132 181.669 88.8953 180.932 89.1469 180.293V180.293ZM82.2914 204.848C82.8312 201.66 83.5072 198.456 84.3002 195.324C84.4706 194.652 85.1638 194.251 85.8492 194.432C87.7143 194.932 86.4057 195.911 84.8138 205.304C84.6978 205.988 84.0395 206.441 83.3427 206.314C82.6366 206.185 82.1767 205.522 82.2914 204.848" fill="#56BF92" fill-opacity="0.44"/>
<path d="M304.043 151.789C301.333 148.449 299.588 147.259 300.891 146.151C301.42 145.7 302.229 145.761 302.696 146.295C305.638 149.635 307.137 150.99 305.842 152.004C305.452 152.308 304.486 152.334 304.043 151.789" fill="#56BF92" fill-opacity="0.44"/>
<path d="M331.719 245.683C331.223 245.453 330.906 244.928 330.977 244.367C331.182 242.725 331.355 241.059 331.491 239.418C331.549 238.724 332.166 238.219 332.871 238.287C333.572 238.358 334.098 238.973 334.04 239.667C333.901 241.342 333.725 243.04 333.514 244.718C333.429 245.406 332.79 245.887 332.089 245.79C331.958 245.772 331.834 245.735 331.719 245.683" fill="#56BF92" fill-opacity="0.44"/>
<path d="M325.333 272.091C324.731 271.814 324.429 271.127 324.655 270.508C325.824 267.294 326.868 264.003 327.752 260.73C327.935 260.06 328.634 259.672 329.318 259.861C330 260.055 330.406 260.747 330.225 261.417C329.321 264.758 328.257 268.116 327.063 271.395C326.825 272.047 326.094 272.375 325.43 272.131C325.396 272.118 325.363 272.105 325.333 272.091V272.091ZM313.106 296.316C311.424 295.245 313.116 294.737 317.892 285.729C318.666 284.269 320.944 285.457 320.164 286.926C318.534 290 316.752 293.036 314.869 295.952C314.487 296.542 313.687 296.692 313.106 296.316ZM295.632 317.16C294.227 315.753 296.007 315.617 302.691 307.91C303.78 306.653 305.738 308.308 304.648 309.566C302.368 312.195 299.942 314.76 297.44 317.188C296.944 317.67 296.135 317.662 295.632 317.16ZM274.425 334.106C274.205 334.004 274.011 333.841 273.872 333.624C273.493 333.029 273.67 332.254 274.266 331.892C277.195 330.111 280.082 328.182 282.846 326.162C283.407 325.75 284.209 325.871 284.636 326.434C285.065 326.995 284.955 327.782 284.392 328.193C281.572 330.255 278.627 332.223 275.636 334.043C275.259 334.271 274.805 334.281 274.425 334.106V334.106ZM249.592 345.684C249.288 345.545 249.037 345.288 248.914 344.951C248.675 344.295 249.02 343.578 249.684 343.353C252.946 342.249 256.2 340.994 259.355 339.622C259.997 339.344 260.754 339.634 261.05 340.271C261.345 340.908 261.063 341.65 260.421 341.93C257.201 343.329 253.881 344.61 250.551 345.737C250.226 345.847 249.885 345.82 249.592 345.684V345.684ZM222.71 351.608C222.317 351.427 222.024 351.056 221.965 350.603C221.877 349.913 222.372 349.29 223.072 349.214C226.511 348.844 229.976 348.323 233.371 347.667C234.062 347.534 234.741 347.979 234.888 348.663C235.035 349.345 234.595 350.007 233.905 350.139C230.441 350.81 226.904 351.341 223.394 351.719C223.152 351.745 222.917 351.703 222.71 351.608ZM195.066 351.553C194.581 351.328 194.266 350.82 194.319 350.27C194.387 349.58 195.011 349.082 195.715 349.161C199.173 349.546 202.682 349.792 206.145 349.889C206.853 349.908 207.417 350.487 207.409 351.182C207.403 351.878 206.824 352.426 206.119 352.407C202.583 352.308 199.001 352.057 195.471 351.664C195.327 351.648 195.191 351.609 195.066 351.553V351.553ZM128.406 323.827C125.639 321.606 122.929 319.242 120.352 316.798C119.839 316.311 119.816 315.514 120.302 315.016C121.669 313.615 121.887 315.375 130 321.883C130.552 322.326 130.643 323.12 130.203 323.657C129.763 324.192 128.959 324.268 128.406 323.827ZM167.308 343.953C167.926 342.105 168.94 343.622 178.976 346.138C179.665 346.306 180.087 346.997 179.926 347.67C179.762 348.344 179.073 348.752 178.386 348.579C174.953 347.718 171.5 346.701 168.126 345.556C167.45 345.325 167.09 344.607 167.308 343.953V343.953ZM152.063 338.895C148.873 337.319 145.712 335.592 142.667 333.761C142.06 333.396 141.859 332.62 142.22 332.028C143.236 330.36 143.844 332.034 153.177 336.647C153.813 336.962 154.079 337.719 153.771 338.34C153.233 339.425 151.909 338.89 152.063 338.895" fill="#56BF92" fill-opacity="0.44"/>
<path d="M108.557 303.985C105.768 300.511 104.338 299.094 105.681 298.142C107.078 297.152 107.698 298.886 110.553 302.444C110.995 302.994 110.905 303.784 110.354 304.211C109.804 304.637 108.999 304.535 108.557 303.985Z" fill="#56BF92" fill-opacity="0.44"/>
<path d="M124.764 273.246L143.069 272.284C148.138 279.178 154.345 285.346 161.56 290.467C161.029 308.014 159.748 309.207 161.574 309.963L181.994 318.409C182.591 318.657 183.275 318.506 183.695 318.034L195.716 304.596C204.433 306.065 213.171 306.081 221.615 304.774L233.917 318.4C234.349 318.877 235.037 319.039 235.627 318.799L255.88 310.648C256.472 310.41 256.837 309.825 256.792 309.193L255.496 291.138C262.407 286.263 268.559 280.254 273.632 273.233L291.949 274.462C292.591 274.506 293.183 274.142 293.424 273.558L301.643 253.584C301.884 253 301.719 252.324 301.232 251.9L287.382 239.822C288.723 231.257 288.585 222.647 287.114 214.305C300.165 202.415 301.873 202.525 301.106 200.741C292.299 181.176 292.991 179.614 290.985 179.719L272.68 180.681C267.611 173.787 261.404 167.619 254.19 162.498C254.72 144.961 256.003 143.758 254.175 143.002C233.743 134.958 233.345 133.485 232.053 134.929L220.033 148.368C211.316 146.898 202.577 146.884 194.135 148.189C181.989 135.282 181.949 133.43 180.121 134.164C160.225 142.584 158.818 141.822 158.958 143.772L160.253 161.827C153.342 166.702 147.19 172.71 142.117 179.73C124.608 178.917 123.076 177.581 122.326 179.407C114.55 199.312 113.019 199.757 114.517 201.065L128.368 213.143C127.028 221.708 127.164 230.318 128.636 238.66C115.63 250.508 113.874 250.43 114.643 252.223C123.451 271.787 122.759 273.351 124.764 273.246" fill="#56BF92" fill-opacity="0.44"/>
<path d="M210.254 209.318C200.736 207.875 191.74 214.231 190.409 223.839C189.095 233.303 195.864 242.193 205.496 243.647C215.127 245.106 224.03 238.591 225.341 229.126C226.656 219.647 219.869 210.77 210.254 209.318ZM205.236 245.515L205.249 245.521L205.236 245.515ZM186.608 223.263C188.206 211.739 199.046 203.806 210.773 205.582C222.498 207.359 230.74 218.177 229.142 229.701C227.544 241.226 216.705 249.157 204.977 247.383C193.249 245.609 185.01 234.784 186.608 223.263Z" fill="#56BF92"/>
<path d="M185.668 275.308C182.775 273.975 180 272.405 177.393 270.621C176.609 270.086 176.342 269.088 176.717 268.271C176.762 268.174 176.816 268.08 176.879 267.988C177.472 267.134 178.667 266.93 179.542 267.529C182.541 269.58 185.782 271.328 189.171 272.733C214.708 283.295 243.755 272.123 254.96 247.808C255.246 247.189 255.521 246.558 255.783 245.921C266.389 220.147 253.551 190.638 227.407 179.816C201.298 169.014 171.385 180.925 160.794 206.626C154.499 221.929 158.288 232.764 157.564 234.333C156.782 236.03 154.218 235.643 153.921 233.793C152.296 223.684 153.573 212.995 158.121 203.125C177.746 160.541 240.199 162.283 258.919 205.895C264.681 219.315 264.831 234.053 259.341 247.392C259.058 248.083 258.76 248.765 258.45 249.44C252.76 261.789 242.681 271.357 229.857 276.519C216.333 281.963 201.375 281.853 187.739 276.213C187.043 275.926 186.351 275.623 185.668 275.308" fill="#56BF92"/>
<path d="M345.065 195.278C348.158 198.925 351.855 202.107 356.072 204.646L356.279 214.878C356.3 216.013 357.272 215.573 368.552 219.432C369.597 219.769 369.48 218.793 375.629 210.953C380.534 211.354 385.392 210.935 390.034 209.782L397.42 216.877C398.241 217.664 398.615 216.667 409.32 211.419C409.64 211.254 409.819 210.906 409.769 210.55L408.327 200.412C411.974 197.318 415.153 193.619 417.694 189.403C427.467 189.004 428.366 189.678 428.711 188.615C432.239 176.973 433.069 176.656 432.184 175.993L424 169.847C424.402 164.942 423.982 160.084 422.83 155.441L429.925 148.055C430.711 147.236 429.715 146.861 424.465 136.157C423.969 135.183 423.401 135.945 413.46 137.15C410.366 133.503 406.667 130.322 402.451 127.782L402.246 117.55C402.223 116.413 401.253 116.853 389.971 112.996C388.933 112.661 389.073 113.594 382.895 121.475C377.99 121.072 373.13 121.493 368.489 122.646L361.103 115.551C360.844 115.302 360.456 115.245 360.137 115.409L349.203 121.009C348.884 121.174 348.703 121.522 348.753 121.878L350.198 132.016C346.549 135.11 343.37 138.809 340.831 143.025C331.056 143.424 330.157 142.75 329.814 143.813C326.285 155.45 325.455 155.771 326.34 156.435L334.523 162.581C334.121 167.486 334.541 172.344 335.694 176.987C329.065 184.181 327.946 184.341 328.457 185.339L334.057 196.271C334.559 197.25 335.173 196.477 345.065 195.278Z" fill="#56BF92" fill-opacity="0.44"/>
<path d="M370.283 165.631C369.964 170.583 373.732 174.871 378.679 175.193C386.63 175.706 391.299 166.284 386.023 160.276C380.77 154.297 370.802 157.63 370.283 165.631V165.631ZM378.556 177.098L378.568 177.103L378.556 177.098ZM366.471 165.385C366.93 158.316 373.021 152.964 380.091 153.423C387.159 153.88 392.512 159.972 392.054 167.042C391.596 174.095 385.486 179.461 378.434 179.005C371.381 178.547 366.015 172.439 366.471 165.385Z" fill="#56BF92"/>
<path d="M314.926 185.389C314.434 183.741 313.999 182.049 313.637 180.361C313.49 179.673 313.926 178.996 314.614 178.849C316.344 178.477 316.098 180.408 317.366 184.661C317.568 185.335 317.183 186.045 316.511 186.246C315.839 186.446 315.128 186.066 314.926 185.389Z" fill="#56BF92" fill-opacity="0.44"/>
<path d="M385.46 100.63C385.54 99.9316 386.17 99.4286 386.869 99.5062C390.349 99.9008 393.815 100.569 397.172 101.494C398.793 101.932 398.123 104.398 396.495 103.95C393.267 103.059 389.932 102.417 386.584 102.039C385.868 101.955 385.384 101.314 385.46 100.63V100.63ZM359.453 104.376C359.135 104.23 358.878 103.954 358.768 103.593C358.561 102.92 358.939 102.207 359.612 102.002C362.95 100.98 366.395 100.215 369.854 99.7278C370.551 99.6307 371.195 100.116 371.293 100.813C371.39 101.508 370.905 102.152 370.208 102.251C366.881 102.718 363.568 103.452 360.357 104.437C360.047 104.533 359.727 104.502 359.453 104.376ZM335.927 117.32C335.765 117.244 335.617 117.136 335.494 116.992C335.036 116.457 335.099 115.653 335.633 115.195C338.287 112.925 341.14 110.846 344.109 109.016C344.707 108.649 345.493 108.834 345.862 109.433C346.231 110.031 346.045 110.817 345.445 111.184C342.587 112.946 339.843 114.946 337.289 117.131C336.899 117.464 336.365 117.521 335.927 117.32V117.32ZM319.472 138.548C318.839 138.241 318.577 137.479 318.885 136.847C320.411 133.709 322.2 130.666 324.202 127.8C325.168 126.42 327.254 127.878 326.29 129.26C324.364 132.016 322.643 134.943 321.175 137.961C320.635 139.071 319.318 138.545 319.472 138.548V138.548ZM312.202 163.397C312.344 160.019 312.747 156.501 313.451 152.982C313.782 151.326 316.278 151.834 315.949 153.48C314.127 162.6 315.55 164.816 313.42 164.723C312.712 164.693 312.173 164.096 312.202 163.397Z" fill="#56BF92" fill-opacity="0.44"/>
<path d="M415.868 112.983C412.02 110.332 410.326 110.059 411.188 108.571C411.542 107.963 412.307 107.746 412.929 108.108C414.412 108.969 415.887 109.903 417.314 110.885C417.893 111.284 418.038 112.077 417.639 112.658C417.246 113.227 416.46 113.387 415.868 112.983" fill="#56BF92" fill-opacity="0.44"/>
<path d="M443.335 157.967C442.742 153.315 441.817 151.884 443.5 151.536C444.189 151.393 444.862 151.836 445.006 152.525C445.355 154.205 445.643 155.927 445.862 157.645C445.952 158.342 445.459 158.981 444.76 159.068C444.065 159.158 443.426 158.667 443.335 157.967" fill="#56BF92" fill-opacity="0.44"/>
<path d="M441.417 183.815C443.937 174.893 442.677 172.714 444.789 172.971C445.488 173.055 445.984 173.691 445.899 174.39C445.482 177.808 444.799 181.213 443.868 184.507C443.677 185.183 442.973 185.578 442.296 185.385C441.621 185.194 441.225 184.493 441.417 183.815ZM429.681 208.603C428.03 207.263 430.493 206.612 435.129 198.64C435.975 197.186 438.18 198.464 437.332 199.921C435.607 202.887 433.637 205.743 431.473 208.415C431.028 208.962 430.228 209.044 429.681 208.603V208.603ZM408.969 225.005C407.976 223.132 410.489 223.491 417.881 217.971C419.232 216.965 420.757 219.005 419.405 220.012C416.651 222.069 413.719 223.926 410.691 225.534C410.07 225.862 409.299 225.627 408.969 225.005ZM383.483 231.941C383.426 231.241 383.947 230.626 384.649 230.568C393.896 229.808 395.483 227.869 395.982 229.932C396.147 230.617 395.727 231.304 395.044 231.469C391.71 232.274 388.283 232.826 384.856 233.107C384.155 233.164 383.541 232.641 383.483 231.941V231.941ZM357.309 228.318C357.974 226.31 359.479 228.378 368.554 229.894C370.211 230.167 369.801 232.683 368.135 232.407C364.742 231.839 361.371 231.005 358.118 229.928C357.461 229.712 357.084 228.994 357.309 228.318" fill="#56BF92" fill-opacity="0.44"/>
<path d="M342.957 222.676C341.508 221.741 340.079 220.74 338.707 219.699C338.148 219.273 338.039 218.474 338.463 217.913C339.535 216.505 340.601 218.127 344.339 220.535C344.929 220.915 345.099 221.704 344.719 222.294C344.332 222.894 343.538 223.051 342.957 222.676" fill="#56BF92" fill-opacity="0.44"/>
<path d="M363.726 193.418C362.677 192.818 362.465 191.633 362.963 190.771C363.492 189.857 364.669 189.547 365.573 190.072C367.268 191.054 369.084 191.859 370.971 192.469C371.384 192.519 381.092 196.392 392.128 190.758C414.015 179.544 411.427 147.236 387.996 139.684C374.515 135.336 360.087 141.898 354.302 154.454C348.475 167.101 355.062 173.681 351.031 174.613C350.004 174.852 348.978 174.213 348.739 173.185C347.452 167.641 347.699 161.835 349.455 156.391C354.783 139.861 372.585 130.7 389.169 136.046C407.014 141.799 416.119 161.974 408.116 179.34C401.664 193.347 385.433 201.147 369.799 196.105C367.684 195.422 365.639 194.518 363.726 193.418" fill="#56BF92"/>
<path d="M358.502 239.093C358.454 238.496 357.844 237.979 356.812 237.565C357.933 236.947 358.554 236.284 358.502 235.634C358.342 233.665 352.113 232.562 344.584 233.169C337.056 233.777 331.082 235.863 331.24 237.831C331.289 238.428 331.899 238.944 332.93 239.358C331.81 239.977 331.189 240.641 331.24 241.291C331.289 241.887 331.899 242.403 332.93 242.817C331.81 243.437 331.189 244.1 331.24 244.75C331.289 245.347 331.899 245.863 332.93 246.277C331.81 246.896 331.189 247.559 331.24 248.209C331.312 249.079 332.571 249.78 334.603 250.239C334.577 250.883 334.591 251.586 334.654 252.366C334.949 255.991 339.027 258.833 344.421 258.833C349.816 258.833 354.484 254.958 354.537 251.321C354.55 250.428 354.513 249.644 354.432 248.947C357.013 248.085 358.585 247.032 358.502 246.011C358.454 245.415 357.844 244.897 356.812 244.483C357.933 243.865 358.554 243.202 358.502 242.552C358.454 241.955 357.844 241.438 356.812 241.024C357.933 240.406 358.554 239.743 358.502 239.093" fill="#0B0075"/>
<path d="M341.101 251.021C338.866 251.021 336.82 250.857 335.13 250.533C335.031 250.515 334.967 250.42 334.986 250.323C335.004 250.224 335.099 250.159 335.198 250.179C337.842 250.685 341.374 250.797 345.144 250.493C348.228 250.244 351.113 249.747 353.486 249.053C353.583 249.026 353.681 249.081 353.71 249.176C353.738 249.273 353.683 249.373 353.588 249.401C351.191 250.1 348.281 250.603 345.173 250.853C343.772 250.966 342.404 251.021 341.101 251.021Z" fill="url(#paint1_linear_110_425)"/>
<path d="M341.138 247.559C338.233 247.559 335.638 247.286 333.807 246.765C333.71 246.738 333.655 246.637 333.682 246.542C333.71 246.445 333.809 246.39 333.906 246.417C336.514 247.16 340.716 247.391 345.144 247.033C349.523 246.681 353.609 245.791 356.072 244.656C356.162 244.614 356.269 244.653 356.311 244.743C356.353 244.834 356.314 244.942 356.222 244.984C353.723 246.136 349.593 247.037 345.173 247.394C343.793 247.506 342.435 247.559 341.138 247.559" fill="url(#paint2_linear_110_425)"/>
<path d="M341.101 244.103C337.965 244.103 335.22 243.781 333.373 243.173C333.278 243.141 333.226 243.039 333.259 242.945C333.289 242.85 333.391 242.798 333.487 242.829C336.056 243.676 340.415 243.956 345.144 243.574C349.523 243.222 353.608 242.332 356.072 241.197C356.162 241.155 356.269 241.194 356.311 241.284C356.353 241.375 356.314 241.483 356.222 241.525C353.723 242.677 349.593 243.577 345.173 243.935C343.772 244.048 342.403 244.103 341.101 244.103" fill="url(#paint3_linear_110_425)"/>
<path d="M341.125 240.642C338.638 240.642 336.375 240.44 334.616 240.05C334.519 240.028 334.457 239.932 334.478 239.833C334.499 239.736 334.596 239.675 334.693 239.696C337.339 240.285 341.148 240.437 345.144 240.115C349.485 239.764 353.549 238.886 356.015 237.763C356.106 237.721 356.214 237.762 356.254 237.852C356.296 237.943 356.256 238.05 356.165 238.092C353.662 239.23 349.554 240.121 345.173 240.476C343.789 240.587 342.427 240.642 341.125 240.642Z" fill="url(#paint4_linear_110_425)"/>
<path d="M326.188 221.629C325.275 218.392 323.722 215.366 321.629 212.73C317.148 207.082 309.838 195.595 308.937 179.919C307.629 157.116 327.852 145.699 346.307 147.249C364.76 148.798 382.97 162.54 380.976 183.753C379.75 196.806 372.443 206.705 367.004 212.392C363.55 216.003 361.087 220.425 359.753 225.241C358.121 231.134 354.236 238.48 345.002 238.928C333.054 239.506 328.092 228.368 326.188 221.629" fill="url(#paint5_linear_110_425)"/>
<path d="M348.053 234.38L354.511 192.382C354.644 191.515 355.071 190.933 355.465 191.081C355.858 191.23 356.068 192.053 355.936 192.922C355.931 192.944 355.926 192.974 355.923 192.996L348.568 234.603C348.513 234.915 348.354 235.114 348.213 235.045C348.076 234.977 348.008 234.682 348.053 234.38" fill="url(#paint6_linear_110_425)"/>
<path d="M341.352 234.713L334.894 192.717C334.761 191.848 334.334 191.266 333.94 191.415C333.547 191.564 333.336 192.387 333.469 193.255C333.474 193.278 333.479 193.307 333.482 193.33L340.837 234.937C340.892 235.25 341.051 235.448 341.191 235.378C341.329 235.312 341.397 235.016 341.352 234.713" fill="url(#paint7_linear_110_425)"/>
<path d="M354.464 188.777C354.301 188.513 353.921 188.415 353.617 188.557L350.022 190.236L348.773 186.681C348.707 186.495 348.555 186.33 348.336 186.241C347.922 186.07 347.428 186.222 347.232 186.581L347.225 186.592L344.267 191.984L341.525 184.309L341.52 184.296C341.453 184.11 341.311 183.942 341.104 183.828C340.645 183.578 340.037 183.697 339.747 184.095L335.613 189.786C335.445 190.019 335.503 190.331 335.759 190.504C336.032 190.689 336.425 190.645 336.637 190.409L340.278 186.348L343.554 193.65L343.557 193.655C343.609 193.773 343.708 193.875 343.845 193.938C344.153 194.082 344.537 193.983 344.704 193.716L347.866 188.641L349.056 191.208L349.066 191.232C349.076 191.25 349.085 191.268 349.097 191.285C349.26 191.549 349.638 191.648 349.942 191.505L354.21 189.511C354.514 189.369 354.629 189.041 354.464 188.777" fill="white"/>
<path d="M367.145 206.979C366.975 206.979 366.804 206.926 366.657 206.817C366.293 206.547 366.217 206.035 366.487 205.669C367.586 204.189 368.594 202.658 369.482 201.12C369.71 200.728 370.21 200.594 370.603 200.82C370.994 201.047 371.128 201.548 370.902 201.94C369.983 203.533 368.94 205.116 367.803 206.647C367.643 206.864 367.396 206.979 367.145 206.979Z" fill="white"/>
<path d="M372.456 197.862C372.348 197.862 372.238 197.84 372.131 197.794C371.715 197.613 371.525 197.13 371.706 196.716C378.529 181.002 372.644 167.812 372.584 167.681C372.395 167.27 372.576 166.784 372.988 166.594C373.401 166.407 373.886 166.586 374.073 166.999C374.332 167.561 380.321 180.989 373.21 197.369C373.075 197.678 372.773 197.862 372.456 197.862Z" fill="white"/>
<path d="M235.952 496.624C235.952 496.624 234.886 502.336 234.338 507.995C234.123 510.207 235.811 512.144 238.03 512.258C245.568 512.644 261.695 513.409 267.487 513.205C268.357 513.175 268.934 512.29 268.621 511.476C268.357 510.796 267.843 510.243 267.181 509.932L240.65 497.431L235.952 496.624" fill="url(#paint8_linear_110_425)"/>
<path d="M235.156 493.255L235.904 500.106C235.904 500.106 240.55 502.323 243.762 499.907L241.9 492.262L235.156 493.255Z" fill="url(#paint9_linear_110_425)"/>
<path d="M236.994 364.604C236.626 366.388 234.26 453.766 243.228 493.019C243.375 493.659 243.045 494.316 242.434 494.558C240.996 495.129 238.179 495.951 234.812 496.032C233.769 496.056 232.84 495.37 232.556 494.366C229.971 485.254 217.611 439.606 216.356 396.1C214.955 347.486 216.372 394.446 216.372 394.446L217.753 364.416L236.994 364.604" fill="#25756A"/>
<path d="M205.27 499.317C205.27 499.317 203.633 502.19 202.003 509.849C201.708 511.232 202.664 512.568 204.07 512.72C206.558 512.988 210.388 513.341 213.461 513.349C214.876 513.352 215.992 512.13 215.835 510.723C215.521 507.919 214.506 503.313 211.266 499.7L205.27 499.317Z" fill="url(#paint10_linear_110_425)"/>
<path d="M203.94 490.501L205.738 500.868C205.738 500.868 207.602 502.281 211.321 501.306L210.522 490.161L203.94 490.501" fill="url(#paint11_linear_110_425)"/>
<path d="M199.994 366.933C191.913 412.97 200.563 480.912 203.573 494.222C203.757 495.037 204.408 495.666 205.229 495.812C206.628 496.056 208.929 496.268 211.208 495.629C211.992 495.409 212.55 494.709 212.589 493.895C213.113 483.162 212.984 417.24 220.352 391.258C220.726 389.942 221.542 388.799 222.665 388.016L236.576 378.324L237.788 362.457L199.994 366.933Z" fill="#25756A"/>
<path d="M249.511 280.029C226.619 279.432 201.294 285.581 201.294 285.581C194.09 325.339 199.283 371.327 199.283 371.327C216.964 376.143 237.031 368.845 237.031 368.845C240.136 352.227 254.329 305.513 254.329 305.513C265.528 304.232 274.776 301.092 282.406 296.897C276.681 290.132 274.033 281.567 272.897 276.51C264.776 278.947 256.572 280.213 249.511 280.029" fill="url(#paint12_linear_110_425)"/>
<path d="M317.465 246.949C315.241 244.211 312.382 245.47 312.382 245.47C308.877 259.669 291.1 271.042 272.896 276.509C274.033 281.567 276.681 290.132 282.406 296.896C312.689 280.249 317.465 246.949 317.465 246.949" fill="url(#paint13_linear_110_425)"/>
<path d="M316.912 247.635C317.14 248.385 314.403 249.498 312.828 246.424C312.786 244.955 311.955 238.664 312.843 237.479C317.57 231.16 326.696 223.27 326.696 223.27C328.21 224.793 326.935 226.263 326.935 226.263L322.502 230.795C323.405 232.462 324.511 233.874 325.017 235.886C325.4 237.409 325.142 239.031 324.361 240.408C323.578 241.789 322.509 243.582 321.501 244.984C319.595 247.64 316.912 247.635 316.912 247.635" fill="url(#paint14_linear_110_425)"/>
<path d="M320.554 233.743L316.522 237.095L315.233 240.461L318.762 244.451C318.762 244.451 320.026 237.763 320.93 236.322C321.836 234.881 321.38 234.175 320.554 233.743Z" fill="url(#paint15_linear_110_425)"/>
<path d="M209.864 307.836L201.294 285.581C201.294 285.581 179.769 299.908 176.075 318.299C180.113 318.636 187.457 319.756 194.62 323.46C196.284 314.775 209.864 307.836 209.864 307.836" fill="url(#paint16_linear_110_425)"/>
<path d="M228.354 328.876C228.354 328.876 204.213 342.217 196.223 330.552C194.563 328.131 194.183 325.736 194.62 323.46C187.457 319.757 180.113 318.636 176.075 318.299C174.962 323.843 175.467 329.756 178.674 335.758C192.618 361.854 231.475 334.826 231.475 334.826L228.354 328.876Z" fill="url(#paint17_linear_110_425)"/>
<path d="M226.496 261.22L219.01 282.218C218.885 282.566 219.026 282.954 219.348 283.135C221.322 284.253 228.446 287.495 237.121 282.11C238.025 281.549 238.645 280.627 238.792 279.572L241.325 261.361L226.496 261.22Z" fill="url(#paint18_linear_110_425)"/>
<path d="M242.534 241.86C242.534 241.86 250.391 256.996 249.307 263.07C248.224 269.143 238.313 268.611 229.701 263.588L223.807 247.269L242.534 241.86Z" fill="url(#paint19_linear_110_425)"/>
<path d="M230.161 255.607C230.515 255.455 230.647 255.024 230.44 254.701C229.808 253.716 228.626 251.706 228.26 249.954C228.26 249.954 226.831 249.02 231.941 247.847C237.05 246.676 244.672 244.853 246.312 240.529C247.91 236.313 243.917 225.632 237.306 234.049C237.053 234.369 236.566 234.372 236.322 234.047C235.265 232.643 232.476 229.724 228.551 231.44C224.879 233.046 224.442 235.723 224.479 237.073C224.49 237.471 224.131 237.776 223.742 237.699C221.896 237.328 217.462 236.982 215.347 241.515C213.605 245.248 214.693 247.381 215.694 248.429C216.018 248.769 215.869 249.32 215.419 249.453C214.2 249.814 212.621 250.829 212.751 253.679C212.93 257.617 217.334 257.311 218.589 257.145C218.795 257.117 219.002 257.19 219.139 257.345C220.202 258.544 224.993 263.638 230.227 264.296C230.68 264.354 231.036 263.91 230.892 263.476L228.687 256.863C228.585 256.556 228.734 256.223 229.032 256.093L230.161 255.607" fill="url(#paint20_linear_110_425)"/>
<path d="M231.063 256.551C231.063 256.551 225.404 252.589 224.956 255.875C224.51 259.163 230.041 260.691 232.8 259.491L231.063 256.551Z" fill="url(#paint21_linear_110_425)"/>
<path d="M223.422 349.96L236.571 304.035C236.72 303.513 237.165 303.133 237.703 303.07C240.087 302.793 246.991 302.012 254.963 301.338C264.564 300.526 275.715 299.868 282.378 300.427C283.326 300.506 283.899 301.509 283.476 302.361C279.687 310.027 264.102 341.209 256.297 351.425C256.038 351.763 255.637 351.961 255.212 351.957L224.701 351.673C223.813 351.665 223.177 350.814 223.422 349.96" fill="url(#paint22_linear_110_425)"/>
<path d="M226.598 338.864C226.598 338.864 224.766 331.331 225.505 328.66C226.244 325.986 227.677 322.551 232.447 323.314C237.22 324.078 242.85 326.088 242.85 326.088C242.85 326.088 242.565 329.568 238.939 328.446L241.187 330.186C241.187 330.186 240.867 332.974 237.802 331.485L239.895 333.793C239.895 333.793 238.578 336.081 236.324 334.614C234.071 333.146 232.991 339.772 226.598 338.864" fill="url(#paint23_linear_110_425)"/>
<path d="M254.086 315.047C254.086 317.178 255.813 318.907 257.946 318.907C260.078 318.907 261.807 317.178 261.807 315.047C261.807 312.915 260.078 311.186 257.946 311.186C255.813 311.186 254.086 312.915 254.086 315.047Z" fill="#56BF92" fill-opacity="0.44"/>
<path d="M238.059 317.592L237.076 317.301L239.753 308.219C240.189 306.739 241.384 305.628 242.869 305.319C251.355 303.548 273.707 303.187 274.654 303.171L274.671 304.198C274.439 304.201 251.47 304.573 243.078 306.323C241.963 306.556 241.066 307.392 240.737 308.51L238.059 317.592" fill="#56BF92" fill-opacity="0.44"/>
<path d="M82.4237 446.116C81.0218 448.19 75.4504 495.155 74.5784 512.502C74.5194 513.674 75.4577 514.653 76.6321 514.653C77.645 514.653 78.5069 513.915 78.6632 512.914L88.8539 447.61L82.4237 446.116" fill="#56BF92"/>
<path d="M127.218 446.116C128.62 448.19 134.192 495.155 135.064 512.502C135.123 513.674 134.184 514.653 133.01 514.653C131.997 514.653 131.135 513.915 130.979 512.914L120.788 447.61L127.218 446.116" fill="#56BF92"/>
<path d="M73.9957 442.451L73.9909 442.962C73.9572 446.647 77.1316 449.668 81.1061 449.736L128.209 450.538C132.127 450.605 135.392 447.775 135.582 444.147L135.607 443.678C135.805 439.895 132.592 436.708 128.507 436.635L81.3838 435.789C77.3505 435.718 74.0297 438.711 73.9957 442.451Z" fill="#25756A"/>
<path d="M173.221 510.796C164.846 510.796 161.142 510.078 159.486 509.423C159.808 510.797 161.032 511.882 162.581 511.882H192.202C193.2 511.882 193.829 510.928 193.591 510.063C190.215 510.335 183.042 510.796 173.221 510.796" fill="#09005D"/>
<path d="M193.591 510.063C193.543 509.89 193.472 509.719 193.349 509.56C191.091 506.678 186.56 502.155 180.393 502.242C171.361 502.368 168.212 503.348 161.192 502.296L159.536 507.785C159.367 508.344 159.364 508.904 159.486 509.423C161.142 510.078 164.846 510.796 173.22 510.796C183.042 510.796 190.215 510.335 193.591 510.063Z" fill="#1A0F91"/>
<path d="M163.224 496.381L161.192 503.295C161.192 503.295 165.695 505.344 169.656 503.699L170.434 497.709L163.224 496.381" fill="url(#paint24_linear_110_425)"/>
<path d="M224.62 506.442C218.093 511.687 214.756 513.45 213.057 513.98C214.164 514.845 215.796 514.92 217.003 513.951L240.094 495.396C240.872 494.772 240.768 493.636 240.044 493.114C237.581 495.44 232.276 500.29 224.62 506.442" fill="#09005D"/>
<path d="M240.044 493.114C239.897 493.009 239.735 492.922 239.539 492.877C235.984 492.053 229.63 491.384 224.879 495.312C217.917 501.07 216.073 503.801 209.945 507.382L212.075 512.678C212.293 513.217 212.638 513.653 213.057 513.98C214.756 513.45 218.093 511.687 224.62 506.442C232.276 500.29 237.581 495.44 240.044 493.114" fill="#1A0F91"/>
<path d="M119.742 417.618C119.742 417.618 169.873 421.711 180.157 426.553C190.441 431.394 171.765 499.245 171.765 499.245C171.765 499.245 168.965 500.593 162.736 498.657C162.736 498.657 169.124 448.585 164.369 437.727L110.091 428.848L119.742 417.618" fill="#56BF92"/>
<path d="M204.964 497.851C205.43 498.275 209.945 507.382 209.945 507.382C209.945 507.382 214.971 506.295 215.997 503.114L211.473 494.894L204.964 497.851Z" fill="url(#paint25_linear_110_425)"/>
<path d="M89.549 417.199C89.549 417.199 87.9152 421.13 87.9818 426.354C88.074 433.578 93.8821 439.441 101.098 439.8L160.361 442.502C161.612 442.56 162.671 443.426 162.985 444.639C164.377 450.026 171.184 466.567 204.458 499.575C205.344 500.453 206.723 500.602 207.776 499.937L212.513 496.945C213.011 496.63 213.17 495.978 212.872 495.47L178.367 436.547C176.554 433.556 173.641 431.395 170.253 430.53L119.742 417.618L89.549 417.199" fill="#56BF92"/>
<path d="M147.952 325.155C147.952 325.155 141.603 336.38 135.131 341.817L148.509 349.283C148.509 349.283 151.524 337.399 158.412 333.919L147.952 325.155" fill="url(#paint26_linear_110_425)"/>
<path d="M88.4725 417.618C88.4725 417.618 104.471 421.517 119.742 417.618C119.742 417.618 141.111 388.894 149.378 381.074C149.378 381.074 162.565 401.883 191.914 404.832L193.551 401.173C193.551 401.173 170.185 390.403 162.991 373.852C155.799 357.302 152.91 350.243 146.365 345.925C142.289 343.235 139.849 341.398 138.588 340.396C137.897 339.846 136.944 339.784 136.191 340.242C129.246 344.474 96.5661 366.857 88.4725 417.618Z" fill="url(#paint27_linear_110_425)"/>
<path d="M148.51 380.67C148.202 380.67 147.897 380.531 147.695 380.267C142.6 373.625 139.763 366.302 139.645 365.995C139.442 365.465 139.706 364.873 140.235 364.669C140.765 364.465 141.357 364.73 141.561 365.259C141.589 365.332 144.416 372.619 149.324 379.019C149.669 379.47 149.584 380.112 149.134 380.458C148.948 380.6 148.728 380.67 148.51 380.67" fill="url(#paint28_linear_110_425)"/>
<path d="M190.15 399.264L193.454 398.382L203.484 396.06C204.692 395.78 205.962 395.995 207.01 396.655L215.635 402.081L191.817 402.041L190.15 399.264" fill="url(#paint29_linear_110_425)"/>
<path d="M158.032 308.324C158.032 308.324 164.201 318.579 165.272 324.248C166.342 329.918 168.061 333.461 161.61 335.479C155.158 337.499 149.163 334.944 145.4 329.652C145.4 329.652 139.523 321.51 140.11 317.78C140.696 314.051 158.032 308.324 158.032 308.324Z" fill="url(#paint30_linear_110_425)"/>
<path d="M147.117 325.265L147.952 325.155C147.952 325.155 143.583 318.553 146.442 316.917C149.301 315.278 160.95 311.26 162.972 306.673C164.922 302.25 162.005 297.253 158.488 296.211C158.266 296.145 158.031 296.276 157.95 296.494L157.744 297.05C157.602 297.432 157.068 297.448 156.905 297.075C156.751 296.722 156.244 296.706 156.085 297.059C155.462 298.432 153.593 300.78 147.991 302.596C140.042 305.172 135.09 309.18 135.7 314.827C135.738 315.186 135.383 315.432 135.054 315.286C134.404 315 133.419 314.955 132.275 316.205C130.286 318.382 131.844 323.14 137.277 326.509C137.535 326.667 137.581 327.033 137.35 327.23C136.538 327.925 135.394 329.478 139.07 330.861C142.83 332.276 144.882 331.797 145.64 331.493C145.844 331.41 145.961 331.2 145.919 330.984L144.953 326.035C144.903 325.779 145.079 325.533 145.338 325.499L147.117 325.265" fill="url(#paint31_linear_110_425)"/>
<path d="M147.46 326.282C147.46 326.282 144.737 319.57 141.878 321.93C139.019 324.288 144.521 329.503 147.061 329.434L147.46 326.282" fill="url(#paint32_linear_110_425)"/>
<path d="M180.948 406.753C180.987 406.755 181.025 406.756 181.066 406.756L231.948 406.705C233.206 406.705 234.225 405.686 234.223 404.429C234.222 403.174 233.198 402.136 231.943 402.158L181.059 402.208C179.803 402.21 178.784 403.229 178.786 404.484C178.787 405.702 179.745 406.693 180.948 406.753Z" fill="url(#paint33_linear_110_425)"/>
<path d="M251.654 356.922C251.635 356.958 251.618 356.992 251.602 357.027L230.193 403.187C229.662 404.329 230.157 405.681 231.296 406.209C232.436 406.738 233.809 406.247 234.317 405.1L255.726 358.94C256.257 357.799 255.762 356.447 254.623 355.918C253.519 355.407 252.215 355.856 251.654 356.922" fill="url(#paint34_linear_110_425)"/>
<path d="M384.894 511.221H379.525V453.142H384.894V511.221Z" fill="#25756A"/>
<path d="M405.728 512.34H358.692C358.692 510.409 360.257 508.846 362.187 508.846H402.233C404.164 508.846 405.728 510.409 405.728 512.34" fill="#25756A"/>
<path d="M412.709 451.128C412.709 454.304 410.11 456.903 406.934 456.903H359.345C356.169 456.903 353.57 454.304 353.57 451.128V445.905C353.57 442.729 356.169 440.13 359.345 440.13H406.934C410.11 440.13 412.709 442.729 412.709 445.905V451.128Z" fill="#56BF92"/>
<path d="M342.563 414.419C342.563 414.419 334.583 415.656 325.611 421.653C324.199 422.598 323.424 424.244 323.636 425.929C324.712 434.439 329.128 461.982 343.695 488.885C344.463 490.304 344.683 491.956 344.345 493.533L341.814 505.31L337.121 509.71H349.21L357.257 487.929L353.816 486.841C351.147 485.997 349.316 483.543 349.268 480.744L348.865 457.38C349.21 446.969 342.482 439.787 342.482 439.787L361.787 438.849L342.563 414.419" fill="url(#paint35_linear_110_425)"/>
<path d="M332.4 511.836C331.3 513.277 344.25 515.177 350.791 512.027C350.791 512.027 359.861 496.247 359.861 488.122C359.861 488.122 359.141 486.466 353.816 486.841C353.816 486.841 350.77 505.525 347.555 507.618C344.34 509.711 338.56 507.83 338.56 507.83C338.56 507.83 334.025 509.709 332.4 511.836" fill="url(#paint36_linear_110_425)"/>
<path d="M359.345 440.13C359.242 439.952 338.56 437.643 338.56 437.643C338.56 437.643 339.236 443.932 337.121 452.588C335.005 461.245 304.638 498.751 304.638 498.751L307.823 508.846C297.978 512.274 288.294 512.822 278.766 510.592L298.498 498.751C298.498 498.751 316.965 435.818 328.278 424.59L349.009 417.417L359.345 440.13Z" fill="url(#paint37_linear_110_425)"/>
<path d="M405.728 403.511C405.728 403.511 417.645 421.236 418.622 429.32C419.601 437.405 415.358 440.69 402.855 441.231C390.353 441.773 356.974 441.765 356.974 441.765L328.486 417.417C328.486 417.417 349.247 410.01 354.644 407.916C360.042 405.82 405.728 403.511 405.728 403.511Z" fill="#25756A"/>
<path d="M306.619 505.446C306.619 505.446 310.048 508.766 307.732 512.46C307.732 512.46 280.577 517.273 273.204 515.09C273.204 515.09 274.735 511.595 283.037 507.618L282.425 508.088C281.649 508.684 282.103 509.922 283.08 509.867C288.55 509.555 299.872 508.553 306.619 505.446" fill="url(#paint38_linear_110_425)"/>
<path d="M354.112 291.11C378.471 286.968 389.938 306.834 389.099 311.009C388.989 311.563 389.51 312.032 390.057 311.885C392.853 311.131 399.031 310.182 402.86 314.982C406.24 319.218 403.714 323.217 401.654 325.412C401.157 325.941 401.575 326.801 402.296 326.71C407.437 326.062 418.609 325.907 420.437 336.372C422.141 346.13 415.349 348.883 411.32 349.659C410.639 349.79 410.479 350.686 411.065 351.058C413.075 352.332 415.404 354.968 414.462 360.168C412.987 368.317 397.009 367.651 395.143 367.544C395.025 367.538 394.913 367.504 394.81 367.444L369.217 352.848C369.018 352.735 368.879 352.538 368.84 352.311L363.673 322.472C363.631 322.231 363.707 321.983 363.877 321.807L347.191 298.261C341.135 297.37 353.824 291.158 354.112 291.11Z" fill="url(#paint39_linear_110_425)"/>
<path d="M373.503 401.166C373.503 401.166 359.627 387.951 352.795 379.2C349.103 374.469 347.944 368.241 349.651 362.489C352.77 351.981 358.312 341.101 358.818 339.406C359.593 336.81 375.151 336.918 375.151 336.918C375.151 336.918 405.768 356.79 417.797 390.45L404.288 394.656C404.288 394.656 396.294 381.244 388.396 372.716C388.396 372.716 402.063 390.771 402.543 398.164L373.503 401.166" fill="url(#paint40_linear_110_425)"/>
<path d="M356.935 324.899C357.099 325.438 361.16 338.902 361.477 339.18C361.794 339.459 370.383 339.922 374.426 337.158L364.397 317.546L356.935 324.899Z" fill="url(#paint41_linear_110_425)"/>
<path d="M340.656 307.599C340.656 307.599 338.693 315.312 344.124 325.685C349.553 336.058 355.7 336.047 359.06 332.727C362.419 329.406 366.563 323.772 365.58 313.743C364.595 303.715 343.49 297.789 340.656 307.599Z" fill="url(#paint42_linear_110_425)"/>
<path d="M358.069 314.289C358.069 314.289 349.059 300.516 340.611 311.356L340.459 315.298C340.459 315.298 330.564 314.124 332.295 305.051C334.027 295.978 342.579 290.308 353.591 294.238C364.603 298.168 370.913 302.198 371.623 310.089C372.335 317.981 366.055 316.25 366.055 316.25C366.055 316.25 364.007 310.693 361.096 310.116C358.184 309.539 358.941 313.871 358.941 313.871L358.069 314.289" fill="url(#paint43_linear_110_425)"/>
<path d="M360.375 314.104C360.375 314.104 355.703 307.051 360.49 306C365.279 304.947 364.535 312.872 364.019 315.802L360.375 314.104Z" fill="url(#paint44_linear_110_425)"/>
<path d="M345.233 402.146L355.428 392.319L369.532 398.277C369.532 398.277 383.571 400.452 391.606 398.277C399.64 396.102 399.64 396.102 399.64 396.102L417.797 390.449L420.65 398.508C421.373 400.554 420.645 402.826 418.876 404.083C417.306 405.201 415.464 406.426 414.291 406.941C411.899 407.987 355.347 406.216 355.347 406.216L345.233 402.146Z" fill="url(#paint45_linear_110_425)"/>
<path d="M383.816 406.779C383.77 406.781 383.725 406.782 383.68 406.782L324.539 406.718C323.077 406.716 321.893 405.529 321.894 404.067C321.896 402.605 323.086 401.397 324.543 401.423L383.685 401.487C385.147 401.489 386.331 402.676 386.329 404.138C386.327 405.553 385.215 406.709 383.816 406.779" fill="url(#paint46_linear_110_425)"/>
<path d="M271.373 353.083H320.626C324.259 353.083 327.566 355.179 329.117 358.465L351.886 406.747H290.678C288.336 406.747 286.232 405.317 285.372 403.138L267.715 358.462C266.694 355.881 268.598 353.083 271.373 353.083" fill="url(#paint47_linear_110_425)"/>
<path d="M306.073 377.838C307.14 381.154 306.351 384.374 304.312 385.03C302.271 385.687 299.753 383.531 298.685 380.216C297.618 376.9 298.405 373.679 300.446 373.022C302.486 372.366 305.005 374.521 306.073 377.838Z" fill="#25756A"/>
<path d="M451.24 505.021C451.24 505.021 451.861 508.467 452.106 512.558C452.211 514.302 450.919 515.815 449.18 515.985C443.127 516.572 429.348 517.656 420.55 516.386C419.318 516.208 418.828 514.695 419.738 513.846C423.366 510.466 432.128 503.892 446.547 502.454L451.24 505.021Z" fill="url(#paint48_linear_110_425)"/>
<path d="M454.25 497.251L451.189 504.752C450.77 505.781 449.727 506.419 448.622 506.305C447.873 506.225 446.986 506.081 446.122 505.819C444.395 505.295 443.421 503.465 443.939 501.736L446.248 494.009L454.25 497.251Z" fill="url(#paint49_linear_110_425)"/>
<path d="M506.575 510.995C506.575 510.995 500.447 516.123 498.058 522.7C497.402 524.51 498.789 526.415 500.715 526.415H513.327C515.172 526.415 516.587 524.754 516.267 522.936C515.463 518.395 513.146 511.014 506.575 510.995Z" fill="url(#paint50_linear_110_425)"/>
<path d="M514.168 504.322C514.168 504.322 512.929 509.802 511.978 513.423C511.805 514.079 511.103 514.44 510.464 514.212C508.556 513.529 507.002 513.227 505.873 513.379C505.35 513.448 504.896 513.015 504.888 512.488L504.77 503.388L514.168 504.322" fill="url(#paint51_linear_110_425)"/>
<path d="M481.572 381.026L444.295 494.751C444.295 494.751 451.444 499.433 454.852 499.239L499.129 407.841C499.129 407.841 506.877 464.157 503.122 504.587L515.804 505.556C515.804 505.556 536.426 402.234 520.806 366.847L481.572 381.026" fill="url(#paint52_linear_110_425)"/>
<path d="M498.889 406.86C498.904 406.86 498.92 406.858 498.935 406.857C499.132 406.831 499.273 406.651 499.247 406.454L497.801 394.971C497.777 394.772 497.597 394.635 497.398 394.657C497.199 394.682 497.06 394.863 497.085 395.06L498.53 406.543C498.555 406.726 498.71 406.86 498.889 406.86" fill="url(#paint53_linear_110_425)"/>
<path d="M474.584 280.954C474.584 280.954 504.786 283.635 500.513 305.154C500.513 305.154 517.208 336.572 525.013 373.583C525.269 374.788 524.462 375.962 523.249 376.169L472.951 384.781C471.563 385.019 470.225 384.154 469.873 382.79L457.855 336.346L453.171 357.94L438.293 354.063L450.818 290.609C450.818 290.609 452.567 281.351 474.584 280.954" fill="url(#paint54_linear_110_425)"/>
<path d="M457.6 334.268C457.626 334.268 457.653 334.264 457.681 334.259C457.881 334.216 458.01 334.015 457.967 333.813L453.773 314.563C453.729 314.361 453.532 314.233 453.327 314.277C453.126 314.321 452.997 314.52 453.04 314.722L457.234 333.973C457.273 334.148 457.427 334.268 457.6 334.268" fill="#56BF92" fill-opacity="0.44"/>
<path d="M460.635 391.554C462.22 390.683 464.075 390.442 465.83 390.878L469.328 391.75C470.072 391.934 470.809 391.423 470.895 390.66L474.516 358.428C479.044 360.577 485.576 360.322 487.731 360.163L479.397 398.164H450.23L460.635 391.554" fill="url(#paint55_linear_110_425)"/>
<path d="M383.14 321.637L384.021 318.708C384.529 317.022 385.774 315.658 387.408 315.002L403.354 308.589C403.354 308.589 403.593 306.543 399.983 305.154C396.375 303.765 397.218 299.722 397.218 299.722C397.218 299.722 402.15 301.971 409.368 305.539C413.497 307.58 415.815 311.183 417.042 313.894L453.171 357.94L448.931 360.854C443.353 364.687 435.681 362.804 432.511 356.825L412.937 319.292C403.111 322.244 393.168 322.81 383.14 321.637" fill="url(#paint56_linear_110_425)"/>
<path d="M464.8 260.406L474.089 286.404C474.089 286.404 465.862 292.835 459.86 290.66L455.178 275.757C455.178 275.757 458.754 257.544 464.8 260.406" fill="url(#paint57_linear_110_425)"/>
<path d="M437.075 251.068C437.075 251.47 446.023 276.399 446.023 276.399L460.15 270.988L455.179 246.099C455.179 246.099 437.075 244.362 437.075 251.068" fill="url(#paint58_linear_110_425)"/>
<path d="M452.701 252.162L456.343 265.059C456.39 265.226 456.414 265.393 456.414 265.564C456.416 266.615 456.155 270.235 452.468 269.743C449.123 269.297 446.064 268.938 444.118 269.855C443.245 270.265 442.826 271.271 443.153 272.18C443.966 274.444 445.894 279.514 448.24 283.664C448.717 284.507 449.762 284.834 450.642 284.433C453.296 283.226 458.819 280.524 462.754 277.309C463.287 276.873 463.544 276.188 463.417 275.512C462.797 272.211 460.954 262.178 460.873 259.302C460.795 256.603 463.824 254.542 465.158 253.768C465.595 253.514 465.906 253.095 466.025 252.603C466.443 250.866 466.798 246.935 461.783 246.068C460.734 245.887 460.05 244.881 460.261 243.838C460.687 241.76 460.551 238.703 456.605 237.576C452.594 236.432 450.071 238.845 448.787 240.697C448.27 241.446 447.298 241.689 446.466 241.317C445.992 241.105 445.422 241.097 444.807 241.614C443.977 242.313 442.718 242.099 442.109 241.203C440.94 239.483 438.815 237.765 435.218 238.928C428.837 240.993 429.141 248.352 431.481 252.351C433.819 256.352 440.612 253.719 443.827 251.069C446.272 249.054 449.995 250.258 451.638 250.952C452.159 251.172 452.547 251.618 452.701 252.162" fill="url(#paint59_linear_110_425)"/>
<path d="M462.152 264.011C462.152 264.011 458.374 256.865 460.873 254.622C463.37 252.378 467.602 252.746 467.488 258.333C467.347 265.283 462.152 264.011 462.152 264.011Z" fill="url(#paint60_linear_110_425)"/>
<path d="M484.8 360.647C486.862 360.647 488.332 360.492 488.492 360.474L488.761 360.443L499.758 309.17C499.802 308.968 499.672 308.767 499.47 308.725C499.266 308.68 499.069 308.811 499.025 309.012L488.141 359.754C486.505 359.898 477.765 360.479 473.151 357.21L482.678 312.662L480.691 308.915C480.594 308.732 480.366 308.662 480.183 308.759C480 308.856 479.931 309.083 480.028 309.266L481.889 312.773L472.318 357.526L472.511 357.668C475.844 360.173 481.213 360.647 484.8 360.647" fill="#56BF92" fill-opacity="0.44"/>
<path d="M155.106 516.977C154.853 516.977 154.596 516.922 154.35 516.807C153.377 516.35 152.928 515.12 153.347 514.06L193.533 412.092C193.95 411.031 195.078 410.541 196.051 410.997C197.023 411.454 197.471 412.684 197.054 413.745L156.867 515.712C156.555 516.503 155.848 516.977 155.106 516.977" fill="#25756A"/>
<path d="M200.377 516.977C199.635 516.977 198.928 516.503 198.616 515.712L158.43 413.745C158.012 412.684 158.461 411.454 159.433 410.997C160.405 410.541 161.532 411.031 161.95 412.092L202.137 514.06C202.556 515.12 202.106 516.35 201.134 516.807C200.887 516.922 200.63 516.977 200.377 516.977" fill="url(#paint61_linear_110_425)"/>
<path d="M427.842 516.977C427.59 516.977 427.333 516.922 427.087 516.807C426.115 516.35 425.665 515.12 426.084 514.06L466.27 412.092C466.689 411.031 467.814 410.541 468.788 410.997C469.76 411.454 470.209 412.684 469.79 413.745L429.603 515.712C429.293 516.503 428.586 516.977 427.842 516.977" fill="#25756A"/>
<path d="M473.114 516.977C472.372 516.977 471.665 516.503 471.353 515.712L431.167 413.745C430.748 412.684 431.198 411.454 432.17 410.997C433.142 410.541 434.269 411.031 434.688 412.092L474.873 514.06C475.292 515.12 474.843 516.35 473.871 516.807C473.625 516.922 473.368 516.977 473.114 516.977Z" fill="url(#paint62_linear_110_425)"/>
<path d="M422.012 404.89H480.217V398.884H422.012C423.257 398.884 423.257 404.89 422.012 404.89Z" fill="#56BF92" fill-opacity="0.44"/>
<path d="M479.67 404.89C479.971 404.89 480.217 404.644 480.217 404.343V399.43C480.217 399.129 479.971 398.883 479.67 398.883H420.783C420.484 398.883 420.236 398.638 420.236 398.337V398.072C420.236 397.771 420.484 397.525 420.783 397.525H483.55C484.937 397.525 486.063 398.651 486.063 400.038V403.878C486.063 405.188 485.002 406.249 483.692 406.249H420.783C420.484 406.249 420.236 406.003 420.236 405.702V405.437C420.236 405.136 420.484 404.89 420.783 404.89H479.67" fill="url(#paint63_linear_110_425)"/>
<path d="M488.654 408.94C488.85 408.268 488.583 407.575 487.928 407.049C487.273 406.522 486.296 406.216 485.267 406.216H136.509C135.156 406.216 133.895 406.674 133.166 407.431C132.436 408.188 132.338 409.139 132.906 409.954L136.685 415.379C137.551 416.621 139.426 417.417 141.489 417.417H482.874C484.794 417.417 486.443 416.515 486.807 415.264L488.654 408.94" fill="url(#paint64_linear_110_425)"/>
<defs>
<linearGradient id="paint0_linear_110_425" x1="581.253" y1="658.431" x2="179.443" y2="159.409" gradientUnits="userSpaceOnUse">
<stop stop-color="#56BF92" stop-opacity="0.44"/>
<stop offset="1" stop-color="#E9FDEA"/>
</linearGradient>
<linearGradient id="paint1_linear_110_425" x1="346.949" y1="221.139" x2="337.385" y2="326.61" gradientUnits="userSpaceOnUse">
<stop stop-color="#53D8FF"/>
<stop offset="1" stop-color="#3840F7"/>
</linearGradient>
<linearGradient id="paint2_linear_110_425" x1="347.227" y1="221.164" x2="337.664" y2="326.633" gradientUnits="userSpaceOnUse">
<stop stop-color="#53D8FF"/>
<stop offset="1" stop-color="#3840F7"/>
</linearGradient>
<linearGradient id="paint3_linear_110_425" x1="346.698" y1="221.118" x2="337.135" y2="326.584" gradientUnits="userSpaceOnUse">
<stop stop-color="#53D8FF"/>
<stop offset="1" stop-color="#3840F7"/>
</linearGradient>
<linearGradient id="paint4_linear_110_425" x1="346.983" y1="221.143" x2="337.42" y2="326.612" gradientUnits="userSpaceOnUse">
<stop stop-color="#53D8FF"/>
<stop offset="1" stop-color="#3840F7"/>
</linearGradient>
<linearGradient id="paint5_linear_110_425" x1="349.887" y1="146.138" x2="335.133" y2="246.138" gradientUnits="userSpaceOnUse">
<stop stop-color="#FF928E"/>
<stop offset="1" stop-color="#FE7062"/>
</linearGradient>
<linearGradient id="paint6_linear_110_425" x1="485.876" y1="25.9164" x2="419.482" y2="118.54" gradientUnits="userSpaceOnUse">
<stop stop-color="#E1473D"/>
<stop offset="1" stop-color="#E9605A"/>
</linearGradient>
<linearGradient id="paint7_linear_110_425" x1="476.656" y1="19.3087" x2="410.262" y2="111.932" gradientUnits="userSpaceOnUse">
<stop stop-color="#E1473D"/>
<stop offset="1" stop-color="#E9605A"/>
</linearGradient>
<linearGradient id="paint8_linear_110_425" x1="266.872" y1="489.011" x2="168.283" y2="594.225" gradientUnits="userSpaceOnUse">
<stop stop-color="#09005D"/>
<stop offset="1" stop-color="#1A0F91"/>
</linearGradient>
<linearGradient id="paint9_linear_110_425" x1="235.124" y1="496.593" x2="243.792" y2="496.675" gradientUnits="userSpaceOnUse">
<stop stop-color="#FEBBBA"/>
<stop offset="1" stop-color="#FF928E"/>
</linearGradient>
<linearGradient id="paint10_linear_110_425" x1="245.173" y1="468.677" x2="146.584" y2="573.894" gradientUnits="userSpaceOnUse">
<stop stop-color="#09005D"/>
<stop offset="1" stop-color="#1A0F91"/>
</linearGradient>
<linearGradient id="paint11_linear_110_425" x1="203.89" y1="495.851" x2="211.374" y2="495.922" gradientUnits="userSpaceOnUse">
<stop stop-color="#FEBBBA"/>
<stop offset="1" stop-color="#FF928E"/>
</linearGradient>
<linearGradient id="paint12_linear_110_425" x1="-102.313" y1="-262.645" x2="-25.8064" y2="-130.033" gradientUnits="userSpaceOnUse">
<stop stop-color="#FF928E"/>
<stop offset="1" stop-color="#FE7062"/>
</linearGradient>
<linearGradient id="paint13_linear_110_425" x1="272.95" y1="270.799" x2="317.234" y2="271.22" gradientUnits="userSpaceOnUse">
<stop stop-color="#FEBBBA"/>
<stop offset="1" stop-color="#FF928E"/>
</linearGradient>
<linearGradient id="paint14_linear_110_425" x1="307.439" y1="263.704" x2="277.082" y2="331.03" gradientUnits="userSpaceOnUse">
<stop stop-color="#FEBBBA"/>
<stop offset="1" stop-color="#FF928E"/>
</linearGradient>
<linearGradient id="paint15_linear_110_425" x1="317.306" y1="241.279" x2="329.886" y2="222.333" gradientUnits="userSpaceOnUse">
<stop stop-color="#FEBBBA"/>
<stop offset="1" stop-color="#FF928E"/>
</linearGradient>
<linearGradient id="paint16_linear_110_425" x1="-128.369" y1="-247.617" x2="-51.8625" y2="-115.005" gradientUnits="userSpaceOnUse">
<stop stop-color="#FF928E"/>
<stop offset="1" stop-color="#FE7062"/>
</linearGradient>
<linearGradient id="paint17_linear_110_425" x1="175.452" y1="332.599" x2="231.492" y2="333.132" gradientUnits="userSpaceOnUse">
<stop stop-color="#FEBBBA"/>
<stop offset="1" stop-color="#FF928E"/>
</linearGradient>
<linearGradient id="paint18_linear_110_425" x1="219.053" y1="273.099" x2="241.211" y2="273.309" gradientUnits="userSpaceOnUse">
<stop stop-color="#FEBBBA"/>
<stop offset="1" stop-color="#FF928E"/>
</linearGradient>
<linearGradient id="paint19_linear_110_425" x1="246.614" y1="259.265" x2="222.395" y2="244.175" gradientUnits="userSpaceOnUse">
<stop stop-color="#FEBBBA"/>
<stop offset="1" stop-color="#FF928E"/>
</linearGradient>
<linearGradient id="paint20_linear_110_425" x1="209.649" y1="228.39" x2="240.884" y2="253.546" gradientUnits="userSpaceOnUse">
<stop stop-color="#09005D"/>
<stop offset="1" stop-color="#1A0F91"/>
</linearGradient>
<linearGradient id="paint21_linear_110_425" x1="240.163" y1="264.744" x2="218.372" y2="251.167" gradientUnits="userSpaceOnUse">
<stop stop-color="#FEBBBA"/>
<stop offset="1" stop-color="#FF928E"/>
</linearGradient>
<linearGradient id="paint22_linear_110_425" x1="246.519" y1="296.992" x2="277.442" y2="425.837" gradientUnits="userSpaceOnUse">
<stop stop-color="#09005D"/>
<stop offset="1" stop-color="#1A0F91"/>
</linearGradient>
<linearGradient id="paint23_linear_110_425" x1="225.33" y1="331.079" x2="242.85" y2="331.079" gradientUnits="userSpaceOnUse">
<stop stop-color="#FEBBBA"/>
<stop offset="1" stop-color="#FF928E"/>
</linearGradient>
<linearGradient id="paint24_linear_110_425" x1="161.192" y1="500.36" x2="170.433" y2="500.36" gradientUnits="userSpaceOnUse">
<stop stop-color="#FEBBBA"/>
<stop offset="1" stop-color="#FF928E"/>
</linearGradient>
<linearGradient id="paint25_linear_110_425" x1="204.964" y1="501.138" x2="215.997" y2="501.138" gradientUnits="userSpaceOnUse">
<stop stop-color="#FEBBBA"/>
<stop offset="1" stop-color="#FF928E"/>
</linearGradient>
<linearGradient id="paint26_linear_110_425" x1="143.679" y1="345.665" x2="149.119" y2="331.948" gradientUnits="userSpaceOnUse">
<stop stop-color="#FEBBBA"/>
<stop offset="1" stop-color="#FF928E"/>
</linearGradient>
<linearGradient id="paint27_linear_110_425" x1="290.606" y1="171.99" x2="123.722" y2="426.289" gradientUnits="userSpaceOnUse">
<stop stop-color="#25756A"/>
<stop offset="1" stop-color="#25756A"/>
</linearGradient>
<linearGradient id="paint28_linear_110_425" x1="147.208" y1="368.215" x2="252.946" y2="191.985" gradientUnits="userSpaceOnUse">
<stop stop-color="#25756A"/>
<stop offset="1" stop-color="#56BF92"/>
</linearGradient>
<linearGradient id="paint29_linear_110_425" x1="190.15" y1="399.011" x2="215.635" y2="399.011" gradientUnits="userSpaceOnUse">
<stop stop-color="#FEBBBA"/>
<stop offset="1" stop-color="#FF928E"/>
</linearGradient>
<linearGradient id="paint30_linear_110_425" x1="160.287" y1="317.77" x2="135.94" y2="342.054" gradientUnits="userSpaceOnUse">
<stop stop-color="#FEBBBA"/>
<stop offset="1" stop-color="#FF928E"/>
</linearGradient>
<linearGradient id="paint31_linear_110_425" x1="139.11" y1="303.922" x2="167.786" y2="332.259" gradientUnits="userSpaceOnUse">
<stop stop-color="#09005D"/>
<stop offset="1" stop-color="#1A0F91"/>
</linearGradient>
<linearGradient id="paint32_linear_110_425" x1="156.35" y1="313.823" x2="132.004" y2="338.107" gradientUnits="userSpaceOnUse">
<stop stop-color="#FEBBBA"/>
<stop offset="1" stop-color="#FF928E"/>
</linearGradient>
<linearGradient id="paint33_linear_110_425" x1="-5271.16" y1="-5431.29" x2="-5181.24" y2="-5335.15" gradientUnits="userSpaceOnUse">
<stop stop-color="#09005D"/>
<stop offset="1" stop-color="#1A0F91"/>
</linearGradient>
<linearGradient id="paint34_linear_110_425" x1="7841.98" y1="-2124.86" x2="7716.9" y2="-2083.87" gradientUnits="userSpaceOnUse">
<stop stop-color="#09005D"/>
<stop offset="1" stop-color="#1A0F91"/>
</linearGradient>
<linearGradient id="paint35_linear_110_425" x1="283.522" y1="684.015" x2="351.637" y2="411.553" gradientUnits="userSpaceOnUse">
<stop stop-color="#FEBBBA"/>
<stop offset="1" stop-color="#FF928E"/>
</linearGradient>
<linearGradient id="paint36_linear_110_425" x1="437.65" y1="350.219" x2="372.895" y2="459.236" gradientUnits="userSpaceOnUse">
<stop stop-color="#09005D"/>
<stop offset="1" stop-color="#1A0F91"/>
</linearGradient>
<linearGradient id="paint37_linear_110_425" x1="316.621" y1="511.689" x2="330.244" y2="308.476" gradientUnits="userSpaceOnUse">
<stop stop-color="#FEBBBA"/>
<stop offset="1" stop-color="#FF928E"/>
</linearGradient>
<linearGradient id="paint38_linear_110_425" x1="400.663" y1="328.249" x2="335.917" y2="437.251" gradientUnits="userSpaceOnUse">
<stop stop-color="#09005D"/>
<stop offset="1" stop-color="#1A0F91"/>
</linearGradient>
<linearGradient id="paint39_linear_110_425" x1="392.073" y1="271.863" x2="378.781" y2="341.695" gradientUnits="userSpaceOnUse">
<stop stop-color="#09005D"/>
<stop offset="1" stop-color="#1A0F91"/>
</linearGradient>
<linearGradient id="paint40_linear_110_425" x1="328.97" y1="497.952" x2="379.79" y2="384.017" gradientUnits="userSpaceOnUse">
<stop stop-color="#56BF92"/>
<stop offset="1" stop-color="#56BF92"/>
</linearGradient>
<linearGradient id="paint41_linear_110_425" x1="370.076" y1="359.232" x2="364.636" y2="324.33" gradientUnits="userSpaceOnUse">
<stop stop-color="#FEBBBA"/>
<stop offset="1" stop-color="#FF928E"/>
</linearGradient>
<linearGradient id="paint42_linear_110_425" x1="340.503" y1="322.234" x2="381.283" y2="308.477" gradientUnits="userSpaceOnUse">
<stop stop-color="#FEBBBA"/>
<stop offset="1" stop-color="#FF928E"/>
</linearGradient>
<linearGradient id="paint43_linear_110_425" x1="331.805" y1="285.833" x2="379.416" y2="338.617" gradientUnits="userSpaceOnUse">
<stop stop-color="#09005D"/>
<stop offset="1" stop-color="#1A0F91"/>
</linearGradient>
<linearGradient id="paint44_linear_110_425" x1="339.288" y1="318.636" x2="380.068" y2="304.88" gradientUnits="userSpaceOnUse">
<stop stop-color="#FEBBBA"/>
<stop offset="1" stop-color="#FF928E"/>
</linearGradient>
<linearGradient id="paint45_linear_110_425" x1="392.411" y1="398.861" x2="468.105" y2="398.861" gradientUnits="userSpaceOnUse">
<stop stop-color="#FEBBBA"/>
<stop offset="1" stop-color="#FF928E"/>
</linearGradient>
<linearGradient id="paint46_linear_110_425" x1="393.849" y1="391.066" x2="346.902" y2="406.464" gradientUnits="userSpaceOnUse">
<stop stop-color="#09005D"/>
<stop offset="1" stop-color="#1A0F91"/>
</linearGradient>
<linearGradient id="paint47_linear_110_425" x1="329.356" y1="360.283" x2="295.546" y2="396.018" gradientUnits="userSpaceOnUse">
<stop stop-color="#09005D"/>
<stop offset="1" stop-color="#1A0F91"/>
</linearGradient>
<linearGradient id="paint48_linear_110_425" x1="435.184" y1="567.429" x2="434.685" y2="620.347" gradientUnits="userSpaceOnUse">
<stop stop-color="#09005D"/>
<stop offset="1" stop-color="#1A0F91"/>
</linearGradient>
<linearGradient id="paint49_linear_110_425" x1="447.941" y1="508.334" x2="450.687" y2="486.867" gradientUnits="userSpaceOnUse">
<stop stop-color="#FEBBBA"/>
<stop offset="1" stop-color="#FF928E"/>
</linearGradient>
<linearGradient id="paint50_linear_110_425" x1="506.683" y1="568.106" x2="506.184" y2="621.026" gradientUnits="userSpaceOnUse">
<stop stop-color="#09005D"/>
<stop offset="1" stop-color="#1A0F91"/>
</linearGradient>
<linearGradient id="paint51_linear_110_425" x1="507.954" y1="515.692" x2="510.63" y2="494.772" gradientUnits="userSpaceOnUse">
<stop stop-color="#FEBBBA"/>
<stop offset="1" stop-color="#FF928E"/>
</linearGradient>
<linearGradient id="paint52_linear_110_425" x1="465.846" y1="346.8" x2="490.62" y2="467.389" gradientUnits="userSpaceOnUse">
<stop stop-color="#56BF92"/>
<stop offset="1" stop-color="#56BF92"/>
</linearGradient>
<linearGradient id="paint53_linear_110_425" x1="509.57" y1="423.566" x2="506.574" y2="417.575" gradientUnits="userSpaceOnUse">
<stop stop-color="#4F52FF"/>
<stop offset="1" stop-color="#4042E2"/>
</linearGradient>
<linearGradient id="paint54_linear_110_425" x1="460.278" y1="297.726" x2="511.699" y2="450.494" gradientUnits="userSpaceOnUse">
<stop stop-color="#25756A"/>
<stop offset="1" stop-color="#25756A"/>
</linearGradient>
<linearGradient id="paint55_linear_110_425" x1="487.731" y1="378.296" x2="450.228" y2="378.296" gradientUnits="userSpaceOnUse">
<stop stop-color="#FEBBBA"/>
<stop offset="1" stop-color="#FF928E"/>
</linearGradient>
<linearGradient id="paint56_linear_110_425" x1="453.173" y1="331.286" x2="383.14" y2="331.286" gradientUnits="userSpaceOnUse">
<stop stop-color="#FEBBBA"/>
<stop offset="1" stop-color="#FF928E"/>
</linearGradient>
<linearGradient id="paint57_linear_110_425" x1="478.386" y1="292.006" x2="454.013" y2="266.999" gradientUnits="userSpaceOnUse">
<stop stop-color="#FEBBBA"/>
<stop offset="1" stop-color="#FF928E"/>
</linearGradient>
<linearGradient id="paint58_linear_110_425" x1="443.038" y1="251.245" x2="473.425" y2="291.445" gradientUnits="userSpaceOnUse">
<stop stop-color="#FEBBBA"/>
<stop offset="1" stop-color="#FF928E"/>
</linearGradient>
<linearGradient id="paint59_linear_110_425" x1="489.361" y1="136.916" x2="457.3" y2="229.818" gradientUnits="userSpaceOnUse">
<stop stop-color="#E1473D"/>
<stop offset="1" stop-color="#E9605A"/>
</linearGradient>
<linearGradient id="paint60_linear_110_425" x1="487.543" y1="283.079" x2="463.171" y2="258.072" gradientUnits="userSpaceOnUse">
<stop stop-color="#FEBBBA"/>
<stop offset="1" stop-color="#FF928E"/>
</linearGradient>
<linearGradient id="paint61_linear_110_425" x1="101.186" y1="745.969" x2="191.449" y2="424.089" gradientUnits="userSpaceOnUse">
<stop stop-color="#25756A"/>
<stop offset="1" stop-color="#25756A"/>
</linearGradient>
<linearGradient id="paint62_linear_110_425" x1="354.038" y1="816.876" x2="444.3" y2="494.995" gradientUnits="userSpaceOnUse">
<stop stop-color="#25756A"/>
<stop offset="1" stop-color="#25756A"/>
</linearGradient>
<linearGradient id="paint63_linear_110_425" x1="476.665" y1="302.316" x2="462.162" y2="363.228" gradientUnits="userSpaceOnUse">
<stop stop-color="#09005D"/>
<stop offset="1" stop-color="#1A0F91"/>
</linearGradient>
<linearGradient id="paint64_linear_110_425" x1="207.666" y1="775.818" x2="297.924" y2="453.945" gradientUnits="userSpaceOnUse">
<stop stop-color="#56BF92"/>
<stop offset="1" stop-color="#56BF92"/>
</linearGradient>
</defs>
</svg>
