<svg width="481" height="437" viewBox="0 0 481 437" fill="none" xmlns="http://www.w3.org/2000/svg">
<g clip-path="url(#clip0_34_321)">
<path d="M481 218.5C481.049 248.938 474.71 279.048 462.392 306.881C461.995 307.78 461.591 308.673 461.183 309.562C460.981 310.008 460.774 310.45 460.567 310.897C460.36 311.338 460.153 311.785 459.941 312.226C459.669 312.798 459.396 313.365 459.118 313.932C458.775 314.645 458.427 315.354 458.067 316.062C458.024 316.16 457.975 316.258 457.92 316.356C457.62 316.956 457.321 317.555 457.01 318.155C456.945 318.285 456.88 318.416 456.809 318.541C456.455 319.239 456.09 319.936 455.719 320.628V320.634C455.327 321.369 454.933 322.103 454.537 322.835C453.557 324.644 452.549 326.437 451.514 328.213C451.204 328.742 450.899 329.27 450.583 329.793C450.294 330.284 450.005 330.769 449.711 331.254C449.51 331.591 449.308 331.924 449.101 332.256C448.774 332.796 448.442 333.335 448.104 333.875C448.099 333.88 448.099 333.88 448.099 333.885C447.353 335.084 446.59 336.277 445.822 337.46H445.816C445.462 338.01 445.103 338.555 444.743 339.1V339.105C443.659 340.74 442.554 342.358 441.426 343.96V343.966C441.422 343.966 441.418 343.968 441.415 343.971V343.977L441.404 343.988C440.511 345.268 439.599 346.538 438.67 347.796V347.802C438.076 348.608 437.477 349.415 436.872 350.21C436.376 350.864 435.875 351.516 435.369 352.166C435.265 352.308 435.156 352.444 435.042 352.586V352.591C434.906 352.771 434.77 352.946 434.622 353.125V353.131C432.471 355.883 430.254 358.58 427.971 361.222H427.966C427.846 361.37 427.721 361.511 427.596 361.653C427.476 361.795 427.345 361.936 427.22 362.083H427.214C427.024 362.307 426.828 362.53 426.632 362.754C426.441 362.977 426.239 363.2 426.038 363.424V363.429C414.141 376.856 400.64 388.769 385.838 398.901C383.866 400.258 381.868 401.579 379.846 402.863C379.345 403.184 378.843 403.5 378.337 403.816C378.184 403.92 378.032 404.012 377.879 404.105C377.612 404.274 377.34 404.443 377.068 404.612C376.801 404.775 376.528 404.944 376.256 405.108C375.172 405.772 374.077 406.426 372.982 407.069C372.71 407.233 372.432 407.391 372.154 407.554C371.882 407.712 371.604 407.87 371.326 408.028C371.323 408.034 371.318 408.039 371.312 408.043C371.307 408.046 371.3 408.049 371.294 408.05L371.283 408.056L371.272 408.066H371.266C369.894 408.857 368.516 409.636 367.121 410.388C364.626 411.75 362.106 413.063 359.56 414.327C358.929 414.643 358.291 414.954 357.654 415.264C357.126 415.52 356.592 415.777 356.063 416.027C355.916 416.098 355.775 416.169 355.628 416.234C355.186 416.441 354.745 416.648 354.304 416.85C353.825 417.079 353.34 417.297 352.86 417.515C352.321 417.76 351.787 418 351.248 418.239C349.222 419.144 347.174 420.016 345.12 420.855C337.784 423.86 330.286 426.454 322.661 428.625C322.307 428.729 321.948 428.832 321.588 428.93C318.325 429.846 315.039 430.683 311.729 431.442C305.949 432.772 300.117 433.863 294.233 434.717C294.222 434.717 294.205 434.722 294.194 434.722C293.492 434.826 292.784 434.924 292.081 435.022C292.021 435.033 291.956 435.044 291.89 435.049C291.885 435.055 291.879 435.055 291.868 435.049C291.868 435.049 291.868 435.055 291.863 435.049C291.084 435.153 290.305 435.256 289.521 435.354C289.466 435.365 289.412 435.371 289.357 435.376C288.627 435.463 287.892 435.551 287.157 435.632C286.367 435.719 285.577 435.801 284.782 435.883C284.177 435.943 283.572 436.003 282.968 436.057C282.914 436.068 282.859 436.074 282.804 436.074C282.254 436.123 281.704 436.172 281.154 436.215C281.132 436.215 281.105 436.221 281.083 436.221C280.604 436.264 280.124 436.297 279.645 436.335C274.007 436.782 268.315 437.004 262.568 437C256.331 437 250.158 436.74 244.048 436.221C244.026 436.221 244.004 436.215 243.982 436.215C242.68 436.106 241.38 435.986 240.082 435.856C239.739 435.823 239.401 435.785 239.058 435.752C238.993 435.747 238.927 435.741 238.862 435.73C238.759 435.719 238.655 435.709 238.546 435.698C238.492 435.692 238.432 435.687 238.377 435.676C237.925 435.627 237.473 435.578 237.015 435.523C236.509 435.463 235.997 435.403 235.49 435.338C234.984 435.278 234.472 435.213 233.965 435.142C233.856 435.131 233.742 435.12 233.633 435.098C233.262 435.055 232.892 435.006 232.527 434.951C232.347 434.929 232.173 434.902 231.999 434.875C231.645 434.826 231.296 434.777 230.942 434.722C230.931 434.722 230.915 434.717 230.904 434.717C219.78 433.11 208.8 430.634 198.063 427.312H198.057C197.474 427.132 196.892 426.947 196.309 426.762C196.134 426.712 195.96 426.658 195.786 426.598C194.271 426.113 192.766 425.612 191.27 425.094C189.206 424.386 187.156 423.645 185.12 422.871C184.565 422.659 184.014 422.446 183.459 422.234C182.353 421.798 181.253 421.362 180.158 420.915C178.289 420.152 176.434 419.366 174.591 418.556H174.585V418.55C172.864 417.793 171.155 417.012 169.46 416.207C169.41 416.192 169.362 416.17 169.318 416.142C169.313 416.142 169.313 416.136 169.307 416.136C168.931 415.962 168.555 415.782 168.18 415.602L168.169 415.597C158.825 411.117 149.816 405.971 141.211 400.198C138.449 398.351 135.734 396.442 133.067 394.471C130.915 392.886 128.795 391.26 126.705 389.595C116.295 381.318 106.66 372.11 97.9219 362.083H97.9164V362.078C97.3009 361.375 96.7017 360.678 96.0916 359.969V359.964C96.0045 359.866 95.9228 359.768 95.8411 359.669C95.4543 359.217 95.0784 358.77 94.7026 358.313V358.307C94.1906 357.702 93.6894 357.096 93.1992 356.487C93.0902 356.357 92.9867 356.231 92.8832 356.1H92.8778V356.095C92.4747 355.605 92.0771 355.109 91.6849 354.613C91.4833 354.368 91.2872 354.117 91.0911 353.866H91.0857V353.861C89.8982 352.363 88.7343 350.85 87.5941 349.322V349.317C87.2781 348.897 86.9676 348.478 86.6626 348.052H86.6571C85.1973 346.08 83.7756 344.084 82.392 342.064V342.059C81.8691 341.301 81.3516 340.538 80.8396 339.77C80.3275 339.002 79.8209 338.232 79.3198 337.46H79.3143C78.7969 336.664 78.2849 335.865 77.7783 335.062C77.751 335.019 77.7238 334.981 77.702 334.942C77.2008 334.152 76.707 333.357 76.2204 332.556C75.8282 331.918 75.4414 331.286 75.0656 330.649C74.8041 330.218 74.5481 329.793 74.2975 329.357C74.2049 329.21 74.1232 329.063 74.0415 328.921C73.4641 327.935 72.8976 326.949 72.3311 325.957C71.672 324.791 71.0183 323.614 70.381 322.437C70.1196 321.952 69.8581 321.462 69.6021 320.972C69.5095 320.814 69.4278 320.656 69.3461 320.492C69.041 319.914 68.736 319.337 68.4364 318.754C68.1368 318.176 67.8372 317.593 67.543 317.01C67.2489 316.427 66.9547 315.844 66.666 315.256C66.4482 314.814 66.2303 314.368 66.0178 313.926C65.9957 313.889 65.9757 313.851 65.9579 313.812C65.8599 313.605 65.7564 313.403 65.6638 313.196C65.642 313.164 65.6255 313.129 65.6147 313.092C65.3914 312.635 65.1735 312.183 64.9611 311.725C64.6778 311.136 64.4055 310.542 64.1331 309.948C63.937 309.534 63.7518 309.115 63.5612 308.695C63.2888 308.107 63.0219 307.513 62.7604 306.913C62.4826 306.298 62.2157 305.677 61.9488 305.055C61.878 304.897 61.8126 304.745 61.7472 304.587C61.6219 304.303 61.5021 304.02 61.3823 303.737C61.0609 302.985 60.7449 302.222 60.4345 301.465C60.0804 300.609 59.7354 299.752 59.3995 298.893C59.0781 298.092 58.7658 297.289 58.4626 296.484L58.3482 296.19V296.185C53.6151 283.741 50.034 270.89 47.6499 257.792V257.786C46.2905 250.308 45.3233 242.764 44.7521 235.184C44.7194 234.77 44.6921 234.356 44.6649 233.942C44.3054 228.815 44.1293 223.667 44.1365 218.5C44.1365 216.206 44.1729 213.923 44.2455 211.651C45.6578 164.147 62.5864 118.413 92.4421 81.4444C93.7548 79.8152 95.0912 78.2059 96.4512 76.6167C136.51 29.7236 196.069 0 262.568 0C340.316 0 408.58 40.6323 447.282 101.829C449.297 105 451.225 108.229 453.067 111.517C471.438 144.174 481.06 181.027 481 218.5Z" fill="#F2F2F2"/>
<path d="M368.341 390.003C367.557 392.172 366.774 394.341 365.994 396.509C365.847 396.923 365.694 397.332 365.547 397.746C363.553 403.271 361.558 408.798 359.56 414.327C358.929 414.643 358.291 414.954 357.654 415.264C357.126 415.52 356.592 415.777 356.063 416.027C355.916 416.098 355.775 416.169 355.628 416.234C355.186 416.441 354.745 416.648 354.304 416.85C353.825 417.079 353.34 417.297 352.86 417.515C352.321 417.76 351.787 418 351.248 418.239C350.968 417.509 350.808 416.738 350.774 415.956C350.751 414.729 350.896 413.504 351.205 412.317C351.678 410.355 352.43 408.432 352.926 406.464C352.953 406.372 352.975 406.274 352.997 406.181C354.102 401.485 353.591 396.553 351.548 392.183C350.317 389.578 348.552 387.208 347.784 384.429C347.116 381.82 347.412 379.057 348.617 376.648C349.064 375.714 349.626 374.839 350.289 374.044C350.447 373.842 350.616 373.651 350.791 373.461C352.393 371.7 354.521 370.505 356.859 370.055C361.331 369.26 366.004 371.641 368.505 375.379C369.529 376.88 370.154 378.619 370.319 380.43C370.591 383.704 369.458 386.914 368.341 390.003Z" fill="#E4E4E4"/>
<path d="M355.993 412.137C354.969 410.246 353.253 408.589 352.926 406.464C351.864 399.642 349.303 394.749 345.06 391.976C343.829 391.175 343.633 389.404 342.876 388.129C342.538 387.557 342.195 386.985 341.841 386.423C341.269 385.492 340.673 384.578 340.054 383.683C338.88 381.952 337.586 380.306 336.181 378.757C335.598 378.108 334.983 377.482 334.346 376.888L334.34 376.882C333.942 376.501 333.539 376.136 333.12 375.782C332.956 375.64 332.788 375.498 332.613 375.357L332.602 375.346C331.866 374.707 331.095 374.111 330.293 373.559C328.446 372.311 326.36 371.444 324.219 372.136C323.378 372.425 322.568 372.797 321.801 373.248C321.408 373.471 321.022 373.706 320.635 373.94C320.373 374.098 320.112 374.256 319.851 374.42C319.638 374.545 319.426 374.67 319.213 374.79C317.568 375.738 315.916 376.668 314.256 377.58C314.017 377.716 313.777 377.847 313.532 377.978H313.526C313.358 378.076 313.183 378.168 313.009 378.261C312.677 378.446 312.339 378.631 312.007 378.811C311.01 379.351 310.011 379.885 309.011 380.413C308.499 380.686 307.981 380.947 307.464 381.209C307.224 381.329 306.984 381.449 306.75 381.574H306.745C306.658 381.617 306.576 381.661 306.489 381.705C305.781 382.07 305.083 382.446 304.408 382.854C302.449 384.035 300.746 385.597 299.402 387.448C299.14 387.807 298.89 388.178 298.661 388.559C298.361 389.053 298.088 389.562 297.844 390.085C297.675 390.439 297.517 390.793 297.376 391.153V391.158C296.036 394.602 295.849 398.388 296.842 401.947V401.953C296.907 402.198 296.978 402.438 297.06 402.677C297.19 403.081 297.337 403.484 297.501 403.876C297.681 404.314 297.885 404.741 298.111 405.157V405.162C299.323 407.231 300.836 409.107 302.599 410.731L302.654 410.785C302.872 410.998 303.095 411.216 303.313 411.428C303.433 411.543 303.558 411.657 303.689 411.766C305.574 413.384 308.618 414.61 310.34 416.272C311.26 417.161 311.8 418.169 311.587 419.427C311.021 422.767 311.146 424.931 311.723 426.32C313.292 430.113 318.216 428.184 321.588 428.93C321.948 428.832 322.307 428.728 322.661 428.625C330.286 426.454 337.784 423.86 345.12 420.855C347.174 420.016 349.222 419.144 351.248 418.239C351.787 418 352.321 417.76 352.86 417.515C353.34 417.297 353.825 417.079 354.304 416.85C354.745 416.648 355.186 416.441 355.628 416.234C355.775 416.169 355.916 416.098 356.063 416.027C356.592 415.776 357.126 415.52 357.654 415.264C357.115 414.213 356.554 413.172 355.993 412.137Z" fill="#E4E4E4"/>
<path d="M316.139 359.236C317.283 355.777 315.709 353.495 311.658 352.284C311.519 352.158 311.352 352.07 311.17 352.026C310.989 351.982 310.799 351.984 310.619 352.033C310.438 352.081 310.273 352.174 310.138 352.303C310.002 352.432 309.902 352.593 309.844 352.771L306.307 363.255C302.608 362.308 299.894 362.957 299.304 366.617C300.765 362.889 299.391 360.55 295.283 359.552C295.149 359.419 294.984 359.322 294.803 359.269C294.622 359.217 294.431 359.212 294.247 359.253C294.063 359.295 293.893 359.383 293.752 359.508C293.611 359.633 293.505 359.792 293.442 359.969L291.115 369.412C288.282 373.681 286.891 378.745 287.146 383.863C287.4 388.981 289.287 393.882 292.529 397.848C295.772 401.815 300.2 404.638 305.163 405.904C310.127 407.17 315.365 406.811 320.11 404.882C324.855 402.952 328.858 399.552 331.53 395.181C334.203 390.81 335.405 385.698 334.961 380.593C334.517 375.488 332.45 370.66 329.062 366.817C325.675 362.973 321.146 360.317 316.139 359.236H316.139Z" fill="#E4E4E4"/>
<path d="M313.887 389.115C313.409 389.371 312.849 389.427 312.329 389.27C311.81 389.114 311.374 388.758 311.117 388.28C311.081 388.212 311.073 388.132 311.096 388.058C311.118 387.984 311.169 387.922 311.237 387.885C311.305 387.849 311.385 387.84 311.459 387.863C311.533 387.885 311.595 387.935 311.632 388.004C311.816 388.344 312.127 388.599 312.498 388.71C312.868 388.822 313.268 388.781 313.609 388.598C313.95 388.415 314.205 388.104 314.317 387.734C314.429 387.363 314.389 386.963 314.207 386.621C314.171 386.553 314.163 386.473 314.185 386.399C314.208 386.325 314.259 386.263 314.327 386.227C314.395 386.19 314.475 386.182 314.549 386.204C314.623 386.226 314.685 386.277 314.722 386.345C314.978 386.823 315.033 387.384 314.877 387.903C314.72 388.422 314.364 388.858 313.887 389.115Z" fill="white"/>
<path d="M311.746 384.817C312.884 384.206 313.616 383.356 313.381 382.919C313.146 382.481 312.034 382.621 310.896 383.232C309.759 383.842 309.027 384.692 309.262 385.13C309.496 385.567 310.609 385.427 311.746 384.817Z" fill="white"/>
<path d="M299.656 385.558C299.809 384.812 300.125 384.109 300.58 383.498C301.036 382.887 301.62 382.384 302.291 382.024C302.962 381.663 303.704 381.455 304.464 381.413C305.225 381.371 305.985 381.497 306.692 381.781C307.047 380.694 307.073 379.525 306.764 378.424C306.456 377.322 305.828 376.337 304.96 375.592C304.092 374.847 303.022 374.377 301.887 374.24C300.751 374.103 299.601 374.307 298.581 374.824C297.561 375.342 296.717 376.15 296.157 377.147C295.596 378.144 295.343 379.285 295.431 380.426C295.518 381.566 295.942 382.655 296.648 383.555C297.354 384.455 298.312 385.125 299.399 385.48C299.484 385.508 299.569 385.534 299.656 385.558Z" fill="white"/>
<path d="M301.383 383.458C302.482 383.458 303.372 382.568 303.372 381.469C303.372 380.37 302.482 379.479 301.383 379.479C300.285 379.479 299.394 380.37 299.394 381.469C299.394 382.568 300.285 383.458 301.383 383.458Z" fill="#3F3D56"/>
<path d="M313.424 378.398C313.578 377.652 313.894 376.948 314.349 376.338C314.804 375.727 315.388 375.224 316.059 374.863C316.73 374.503 317.472 374.295 318.233 374.253C318.993 374.211 319.754 374.336 320.46 374.621C320.816 373.533 320.841 372.365 320.533 371.263C320.224 370.162 319.597 369.176 318.728 368.432C317.86 367.687 316.791 367.217 315.655 367.08C314.52 366.943 313.369 367.147 312.349 367.664C311.329 368.181 310.486 368.99 309.925 369.987C309.364 370.984 309.112 372.125 309.199 373.265C309.287 374.406 309.71 375.495 310.417 376.395C311.123 377.295 312.08 377.965 313.167 378.32C313.252 378.348 313.338 378.374 313.424 378.398Z" fill="white"/>
<path d="M315.882 376.187C316.98 376.187 317.871 375.296 317.871 374.197C317.871 373.098 316.98 372.208 315.882 372.208C314.783 372.208 313.893 373.098 313.893 374.197C313.893 375.296 314.783 376.187 315.882 376.187Z" fill="#3F3D56"/>
<path d="M325.863 374.059L319.072 380.982L319.757 381.655L326.549 374.732L325.863 374.059Z" fill="white"/>
<path d="M328.021 377.409L319.816 382.577L320.328 383.39L328.533 378.222L328.021 377.409Z" fill="white"/>
<path d="M304.502 388.803L294.981 390.637L295.163 391.58L304.684 389.746L304.502 388.803Z" fill="white"/>
<path d="M305.419 390.304L296.578 394.287L296.973 395.163L305.814 391.18L305.419 390.304Z" fill="white"/>
<path d="M25.0313 242.523C6.40724 225.756 -4.86982 199.093 2.0605 175.007C17.7004 197.326 40.7284 213.392 67.0701 220.363C77.2387 223.014 88.8247 224.904 95.0111 233.401C98.8606 238.688 99.7545 245.674 98.8434 252.151C97.9321 258.628 95.3851 264.744 92.8613 270.778L92.9949 272.406C68.4001 267.618 43.6555 259.29 25.0313 242.523Z" fill="#E6E6E6"/>
<path d="M2.58073 175.084C7.3142 195.058 18.4574 213.648 34.0933 226.99C37.4737 229.875 41.1538 232.506 45.282 234.208C49.3185 235.835 53.7172 236.352 58.0208 235.704C62.0457 235.18 66.1021 234.179 70.1842 234.643C74.4868 235.132 78.0815 237.544 80.5926 241.017C83.6651 245.265 85.0282 250.365 86.1879 255.399C87.4755 260.987 88.7244 266.813 92.4131 271.38C92.86 271.934 91.9754 272.595 91.5292 272.043C85.1116 264.096 85.9895 253.095 81.3416 244.314C79.1728 240.217 75.7564 236.748 71.0509 235.887C66.9362 235.135 62.7523 236.164 58.6816 236.729C54.4073 237.323 50.2719 237.18 46.1713 235.731C41.9765 234.249 38.1858 231.755 34.7464 228.97C26.9944 222.596 20.2926 215.042 14.8863 206.585C8.66276 196.967 4.12973 186.356 1.48337 175.209C1.31986 174.519 2.41829 174.398 2.58072 175.084L2.58073 175.084Z" fill="white"/>
<path d="M28.7822 222.921C26.1504 225.247 22.778 226.561 19.2671 226.629C15.7562 226.697 12.3356 225.514 9.61605 223.292C9.06732 222.84 9.74297 221.966 10.2924 222.418C12.821 224.492 16.0075 225.593 19.2767 225.524C22.5459 225.454 25.6824 224.217 28.1202 222.037C28.6506 221.564 29.3095 222.451 28.7822 222.921V222.921Z" fill="white"/>
<path d="M56.015 236.238C56.5229 229.076 54.3133 221.985 49.8268 216.38C49.3819 215.825 50.2663 215.163 50.7108 215.717C55.3686 221.559 57.653 228.943 57.1081 236.395C57.0557 237.106 55.9629 236.945 56.015 236.238Z" fill="white"/>
<path d="M10.1069 196.725C11.3126 196.038 12.3288 195.061 13.0641 193.884C13.7994 192.707 14.2308 191.365 14.3196 189.979C14.363 189.269 15.4558 189.43 15.4127 190.136C15.3075 191.667 14.8292 193.148 14.0197 194.451C13.2102 195.753 12.0941 196.838 10.7689 197.61C10.6501 197.693 10.504 197.728 10.3605 197.707C10.2169 197.686 10.0866 197.612 9.99594 197.499C9.90888 197.381 9.87169 197.234 9.89248 197.089C9.91326 196.944 9.99032 196.814 10.1069 196.725Z" fill="white"/>
<path d="M79.8388 141.123C79.8243 141.567 79.8099 142.012 79.8028 142.462C79.639 148.438 79.9609 154.418 80.7653 160.343C80.8202 160.802 80.8828 161.266 80.9508 161.723C83.0408 175.976 87.758 189.717 94.8626 202.247C97.6942 207.23 100.901 211.991 104.455 216.488C109.363 222.698 115.178 229.041 117.676 236.296C117.945 237.05 118.167 237.82 118.341 238.602L94.9692 272.117C94.8779 272.166 94.7939 272.222 94.7023 272.271L93.8303 273.652C93.6309 273.433 93.4287 273.202 93.2292 272.983C93.113 272.856 93.0019 272.722 92.8857 272.595C92.8098 272.508 92.7342 272.421 92.6608 272.347C92.6355 272.318 92.6104 272.289 92.5926 272.266C92.5192 272.192 92.4589 272.115 92.3932 272.047C91.2595 270.756 90.1329 269.454 89.0134 268.143C89.0057 268.137 89.0057 268.137 89.0033 268.124C80.4987 258.109 72.7553 247.295 66.899 235.65C66.7229 235.299 66.5389 234.944 66.3735 234.578C63.7628 229.314 61.5866 223.845 59.8665 218.227C58.9346 215.147 58.1591 212.022 57.5431 208.864C55.967 200.701 55.6842 192.341 56.7052 184.09C58.743 167.643 66.0167 152.03 78.8507 141.888C79.1791 141.629 79.5027 141.376 79.8388 141.123Z" fill="#E6E6E6"/>
<path d="M80.2115 141.494C71.969 160.293 69.6769 181.848 74.1311 201.917C75.094 206.256 76.4484 210.574 78.7204 214.419C80.9637 218.149 84.1648 221.211 87.9911 223.286C91.5199 225.291 95.3617 226.935 98.3415 229.764C101.482 232.746 102.901 236.836 102.816 241.121C102.712 246.364 100.731 251.257 98.6271 255.974C96.2914 261.212 93.7824 266.616 93.9785 272.484C94.0022 273.195 92.8979 273.19 92.8741 272.48C92.5331 262.27 99.8549 254.016 101.429 244.205C102.164 239.627 101.524 234.8 98.2846 231.279C95.4522 228.2 91.492 226.502 87.9015 224.502C84.1314 222.402 80.9159 219.797 78.5138 216.17C76.0565 212.461 74.5305 208.187 73.4609 203.892C71.1079 194.133 70.3035 184.066 71.0769 174.057C71.8963 162.63 74.6638 151.427 79.2598 140.934C79.5445 140.284 80.4944 140.849 80.2115 141.494L80.2115 141.494Z" fill="white"/>
<path d="M72.3392 195.47C68.8382 195.742 65.3546 194.76 62.5106 192.7C59.6665 190.64 57.6472 187.635 56.8133 184.223C56.6469 183.532 57.7125 183.241 57.8791 183.933C58.6498 187.112 60.5311 189.91 63.1834 191.823C65.8357 193.736 69.0843 194.638 72.3428 194.366C73.051 194.307 73.0433 195.412 72.3392 195.47Z" fill="white"/>
<path d="M86.068 222.504C90.7844 217.091 93.288 210.099 93.0795 202.921C93.0583 202.21 94.1626 202.215 94.1838 202.925C94.3869 210.394 91.7667 217.666 86.8462 223.288C86.3769 223.823 85.6011 223.037 86.068 222.504L86.068 222.504Z" fill="white"/>
<path d="M73.195 163.307C74.5715 163.484 75.9705 163.317 77.2662 162.819C78.562 162.322 79.714 161.511 80.6188 160.458C81.0812 159.917 81.8565 160.704 81.3971 161.242C80.3921 162.4 79.1187 163.295 77.6883 163.847C76.2578 164.4 74.7139 164.594 73.1914 164.412C73.0464 164.407 72.9088 164.346 72.8066 164.243C72.7044 164.141 72.6452 164.003 72.641 163.857C72.6422 163.711 72.7011 163.571 72.8048 163.468C72.9086 163.365 73.0488 163.307 73.195 163.307V163.307Z" fill="white"/>
<path d="M293.341 143.358C296.588 125.395 291.193 105.013 276.464 94.2383C277.41 114.066 271.316 133.589 259.258 149.354C254.586 155.418 248.758 161.675 248.985 169.327C249.126 174.088 251.726 178.509 255.138 181.831C258.551 185.154 262.744 187.539 266.888 189.887L267.536 190.883C279.562 177.154 290.095 161.32 293.341 143.358Z" fill="#E6E6E6"/>
<path d="M276.198 94.5141C282.44 108.272 284.19 123.648 281.198 138.457C280.611 141.657 279.523 144.744 277.975 147.605C276.377 150.343 274.075 152.602 271.308 154.149C268.757 155.644 265.975 156.877 263.832 158.965C262.751 160.05 261.911 161.352 261.368 162.785C260.825 164.217 260.591 165.749 260.681 167.278C260.807 171.095 262.296 174.639 263.872 178.055C265.623 181.847 267.501 185.758 267.414 190.033C267.404 190.551 268.208 190.537 268.218 190.02C268.37 182.582 262.96 176.64 261.72 169.511C261.142 166.184 261.562 162.663 263.888 160.068C265.921 157.799 268.789 156.525 271.385 155.035C274.106 153.565 276.426 151.451 278.142 148.878C279.831 146.106 281.036 143.066 281.705 139.889C283.326 132.76 283.816 125.421 283.158 118.14C282.453 109.827 280.332 101.695 276.886 94.0968C276.672 93.6266 275.986 94.047 276.198 94.5141L276.198 94.5141Z" fill="white"/>
<path d="M282.442 133.745C284.994 133.91 287.522 133.162 289.573 131.635C291.625 130.107 293.067 127.9 293.642 125.408C293.756 124.903 292.978 124.701 292.863 125.207C292.332 127.529 290.988 129.584 289.075 131.003C287.162 132.421 284.805 133.109 282.429 132.941C281.913 132.905 281.929 133.71 282.442 133.745Z" fill="white"/>
<path d="M272.701 153.562C269.215 149.665 267.326 144.597 267.409 139.368C267.418 138.85 266.614 138.864 266.605 139.381C266.528 144.823 268.505 150.093 272.142 154.14C272.489 154.526 273.046 153.946 272.701 153.562Z" fill="white"/>
<path d="M281.514 110.332C280.513 110.474 279.493 110.365 278.545 110.015C277.597 109.665 276.75 109.085 276.081 108.327C275.739 107.938 275.182 108.518 275.522 108.905C276.265 109.739 277.2 110.379 278.247 110.768C279.294 111.157 280.42 111.283 281.527 111.136C281.633 111.131 281.732 111.086 281.806 111.01C281.879 110.934 281.921 110.833 281.923 110.727C281.921 110.621 281.876 110.52 281.8 110.445C281.723 110.371 281.621 110.33 281.514 110.332L281.514 110.332Z" fill="white"/>
<path d="M216.576 109.43C216.782 109.679 216.989 109.929 217.194 110.185C219.953 113.553 222.434 117.139 224.612 120.909C224.785 121.198 224.956 121.493 225.121 121.786C230.272 130.924 233.683 140.94 235.18 151.324C235.771 155.456 236.048 159.628 236.007 163.802C235.95 169.567 235.43 175.813 237.227 181.105C237.408 181.659 237.624 182.201 237.872 182.729L266.271 191.598C266.345 191.585 266.418 191.58 266.493 191.567L267.611 191.973C267.628 191.758 267.641 191.535 267.659 191.32C267.669 191.195 267.673 191.068 267.684 190.943C267.689 190.86 267.693 190.776 267.703 190.7C267.704 190.672 267.706 190.644 267.705 190.623C267.715 190.548 267.715 190.477 267.723 190.408C267.8 189.159 267.868 187.907 267.928 186.652C267.93 186.646 267.93 186.646 267.925 186.637C268.356 177.077 267.993 167.396 266.172 158.079C266.117 157.798 266.065 157.512 265.997 157.227C265.153 153.032 263.968 148.913 262.453 144.91C261.616 142.722 260.669 140.577 259.616 138.484C256.884 133.081 253.319 128.141 249.052 123.847C240.546 115.286 229.397 109.543 217.486 109.429C217.181 109.427 216.883 109.426 216.576 109.43Z" fill="#E6E6E6"/>
<path d="M216.527 109.81C229.792 117.036 240.443 128.259 246.969 141.885C248.425 144.793 249.415 147.913 249.9 151.13C250.272 154.278 249.794 157.469 248.516 160.371C247.379 163.1 245.9 165.76 245.446 168.718C245.236 170.236 245.349 171.781 245.777 173.252C246.206 174.723 246.941 176.086 247.933 177.253C250.331 180.225 253.653 182.158 256.968 183.936C260.648 185.909 264.501 187.901 267.005 191.367C267.308 191.787 267.942 191.292 267.639 190.872C263.283 184.842 255.388 183.356 250.107 178.41C247.643 176.102 245.859 173.038 246.154 169.565C246.412 166.529 247.935 163.785 249.11 161.031C250.398 158.219 250.979 155.134 250.8 152.046C250.48 148.815 249.612 145.662 248.235 142.723C245.238 136.055 241.213 129.899 236.305 124.482C230.738 118.269 224.15 113.054 216.825 109.063C216.372 108.816 216.077 109.565 216.527 109.81L216.527 109.81Z" fill="white"/>
<path d="M245.126 137.374C247.262 135.968 248.83 133.849 249.549 131.393C250.268 128.938 250.091 126.308 249.049 123.971C248.837 123.499 248.094 123.807 248.306 124.28C249.28 126.454 249.445 128.904 248.771 131.189C248.097 133.474 246.629 135.442 244.631 136.739C244.197 137.022 244.694 137.654 245.126 137.374Z" fill="white"/>
<path d="M249.275 159.063C244.146 158.051 239.587 155.142 236.507 150.917C236.202 150.498 235.568 150.993 235.873 151.411C239.086 155.802 243.837 158.82 249.176 159.861C249.685 159.96 249.781 159.161 249.275 159.063Z" fill="white"/>
<path d="M230.292 119.238C229.579 119.954 228.699 120.482 227.731 120.774C226.763 121.065 225.738 121.112 224.748 120.91C224.24 120.804 224.145 121.604 224.649 121.708C225.744 121.927 226.876 121.874 227.946 121.554C229.016 121.234 229.991 120.656 230.787 119.872C230.868 119.805 230.92 119.709 230.933 119.604C230.946 119.499 230.919 119.393 230.857 119.308C230.791 119.224 230.695 119.17 230.589 119.157C230.483 119.144 230.377 119.173 230.292 119.238L230.292 119.238Z" fill="white"/>
<path d="M71.5075 205.977C75.4392 205.977 79.2098 207.539 81.9899 210.32C84.77 213.101 86.3319 216.873 86.3319 220.806V220.806C86.3313 224.246 85.1354 227.579 82.949 230.234C80.7625 232.889 77.7214 234.701 74.3463 235.36V259.614H64.8839V205.977H71.5075Z" fill="#3F3D56"/>
<path d="M434.624 348.05V353.129C432.472 355.88 430.255 358.578 427.973 361.22C427.728 361.509 427.477 361.792 427.221 362.081C426.834 362.533 426.437 362.98 426.039 363.427V348.05H434.624Z" fill="#CACACA"/>
<path d="M409.436 337.458C407.539 337.46 405.719 338.215 404.377 339.558C403.036 340.9 402.281 342.72 402.279 344.618V354.922C402.281 356.82 403.036 358.64 404.377 359.982C405.719 361.324 407.539 362.079 409.436 362.081H427.221C427.477 361.793 427.728 361.509 427.973 361.221C430.255 358.578 432.472 355.881 434.624 353.129C434.766 352.949 434.907 352.769 435.043 352.59C436.274 351.015 437.484 349.413 438.671 347.8C439.597 346.536 440.518 345.261 441.417 343.975C441.422 343.969 441.427 343.969 441.427 343.964C442.931 341.828 444.396 339.659 445.823 337.458H409.436Z" fill="#3F3D56"/>
<path d="M455.231 249.263C454.137 248.885 452.988 248.693 451.832 248.696H448.906C447.841 248.697 446.782 248.856 445.763 249.17C443.616 249.845 441.739 251.187 440.406 253.002C439.073 254.817 438.353 257.009 438.35 259.261V345.217C438.35 345.539 438.366 345.855 438.393 346.165C438.441 346.717 438.534 347.264 438.671 347.8C439.597 346.536 440.518 345.261 441.417 343.975C441.422 343.969 441.427 343.969 441.427 343.964C442.931 341.828 444.396 339.659 445.823 337.458C446.591 336.276 447.354 335.082 448.1 333.884C453.493 325.229 458.269 316.205 462.394 306.879V259.261C462.391 257.055 461.699 254.906 460.415 253.113C459.131 251.32 457.318 249.974 455.231 249.263Z" fill="#3F3D56"/>
<path d="M94.704 348.05V358.311C92.2528 355.379 89.8833 352.382 87.5954 349.32C87.2795 348.9 86.969 348.475 86.6585 348.05H94.704Z" fill="#CACACA"/>
<path d="M111.307 337.458H79.3157C80.3235 339.011 81.3493 340.546 82.3934 342.062C83.777 344.084 85.1987 346.08 86.6585 348.051C86.969 348.476 87.2795 348.901 87.5954 349.32C89.8887 352.382 92.2582 355.379 94.704 358.311C95.1616 358.867 95.6246 359.417 96.093 359.967C96.6922 360.676 97.3005 361.38 97.9178 362.081H111.307C113.204 362.079 115.023 361.324 116.364 359.981C117.704 358.639 118.458 356.819 118.459 354.922V344.618C118.458 342.72 117.704 340.9 116.364 339.558C115.023 338.216 113.204 337.46 111.307 337.458Z" fill="#3F3D56"/>
<path d="M76.712 249.889C75.2038 249.107 73.5302 248.698 71.8313 248.696H68.9116C67.5301 248.694 66.1618 248.966 64.8862 249.497C62.9535 250.295 61.301 251.649 60.1375 253.387C58.974 255.125 58.3518 257.169 58.3496 259.261V296.188C63.8496 310.652 70.8782 324.487 79.3157 337.458C80.3234 339.011 81.3493 340.546 82.3934 342.062V259.261C82.3919 257.329 81.8617 255.434 80.8602 253.782C79.8587 252.13 78.4241 250.784 76.712 249.889Z" fill="#3F3D56"/>
<path d="M195.713 409.477L205.309 407.275L201.384 369.202L187.221 372.453L195.713 409.477Z" fill="#9E616A"/>
<path d="M204.443 376.445C204.246 375.774 204.113 375.086 204.045 374.391C203.965 373.569 203.805 372.756 203.566 371.966C203.293 371.247 202.956 370.554 202.558 369.895C202.367 369.547 202.166 369.198 201.986 368.844C201.805 368.49 201.649 368.124 201.518 367.748C195.902 351.157 188.063 328.609 182.627 315.412C179.429 307.647 159.765 305.065 141.212 304.405C138.951 304.323 136.707 304.269 134.512 304.242C133.755 304.231 133.003 304.22 132.257 304.214C130.35 304.204 128.493 304.204 126.706 304.225C126.472 304.225 126.238 304.225 126.003 304.231C124.702 304.242 123.44 304.26 122.218 304.285C113.818 304.449 107.646 304.83 106.546 304.901L96.7467 298.738L94.8347 297.534L94.6332 298.738L93.0916 307.925L90.4606 323.602L97.0572 325.454L101.339 326.653L126.706 333.769L132.099 335.284L132.131 335.295L141.212 335.279L166.04 335.235L167.239 338.412C166.808 339.08 166.525 339.833 166.408 340.619C166.291 341.406 166.343 342.208 166.56 342.973C166.776 343.738 167.154 344.448 167.666 345.055C168.179 345.663 168.815 346.155 169.532 346.498L170.463 346.939L181.81 376.973C181.845 379.69 182.693 382.334 184.245 384.564C184.435 384.841 184.642 385.114 184.86 385.381L185.111 385.681L189.474 394.219L192.072 393.62L203.13 391.086L203.184 390.977C203.19 390.961 203.332 390.661 203.538 390.138V390.121C204.405 387.958 206.322 382.046 204.443 376.445Z" fill="#2F2E41"/>
<path d="M231.401 412.01C230.988 410.179 230.217 408.449 229.132 406.918C228.048 405.387 226.671 404.086 225.082 403.089C223.493 402.092 221.722 401.42 219.872 401.11C218.022 400.801 216.129 400.861 214.302 401.286L206.638 397.826L204.492 399.336L195.591 405.58L194.856 405.749L192.47 406.294L195.765 420.662L231.51 412.462L231.401 412.01Z" fill="#2F2E41"/>
<path d="M183.989 389.854L180.748 416.14L180.639 417.001L180.159 420.919C178.291 420.156 176.428 419.366 174.587 418.554C172.865 417.796 171.157 417.015 169.461 416.211V389.86L183.989 389.854Z" fill="#9E616A"/>
<path d="M113.658 209.152C124.51 209.152 133.307 200.352 133.307 189.496C133.307 178.641 124.51 169.84 113.658 169.84C102.806 169.84 94.0081 178.641 94.0081 189.496C94.0081 200.352 102.806 209.152 113.658 209.152Z" fill="#9E616A"/>
<path d="M186.075 399.886C185.53 399.139 184.964 398.36 184.931 397.614C184.806 394.982 184.675 392.377 184.539 389.827C184.441 388.045 184.343 386.285 184.245 384.564C184.234 384.346 184.217 384.128 184.206 383.915C184.038 381.065 184.882 378.058 185.694 375.143C185.96 374.189 186.227 373.225 186.467 372.26C187.066 370.111 187.318 367.879 187.213 365.651C185.819 348.002 179.587 331.404 176.793 328.609C172.544 324.359 153.332 314.54 141.212 308.568C139.06 307.506 137.132 306.568 135.552 305.806C134.152 305.124 133.025 304.585 132.257 304.214C131.669 303.937 131.287 303.757 131.156 303.691L131.091 303.659L126.706 304.149L126.003 304.231L122.136 304.667L96.9755 307.489L93.0916 307.925L87.5955 308.546L82.6331 309.102L82.4479 309.118L82.4152 309.304C82.4152 309.309 82.4043 309.347 82.3934 309.418C81.5401 314.804 81.5401 320.291 82.3934 325.678C83.0362 329.334 84.2509 333.05 86.408 336.178C86.7021 336.603 87.0072 337.011 87.334 337.404C87.345 337.424 87.3598 337.443 87.3776 337.458C87.4484 337.545 87.5192 337.632 87.5955 337.72V337.725C90.0628 340.596 93.3747 342.612 97.0572 343.485C97.6019 343.632 98.1575 343.752 98.7295 343.85C104.825 344.929 111.71 345.92 118.459 346.792C121.254 347.152 124.026 347.489 126.706 347.806C132.072 348.438 137.083 348.972 141.212 349.397C146.997 349.985 151.06 350.35 151.965 350.426L162.069 397.581C161.276 398.923 160.96 400.493 161.171 402.037C161.383 403.581 162.11 405.008 163.235 406.087L164.063 406.888L165.022 411.378L168.181 415.606L168.579 416.14H182.518L182.594 416.047C182.643 415.982 187.546 409.683 187.213 402.18C187.181 401.406 186.641 400.671 186.075 399.886Z" fill="#2F2E41"/>
<path d="M185.694 241.849C184.639 241.56 183.533 241.507 182.454 241.692C181.376 241.877 180.351 242.297 179.452 242.921C178.553 243.545 177.802 244.359 177.251 245.305C176.701 246.251 176.364 247.306 176.265 248.396L159.939 253.501L160.62 264.182L183.575 256.65C185.417 256.694 187.211 256.061 188.618 254.871C190.024 253.68 190.945 252.015 191.207 250.191C191.468 248.367 191.051 246.51 190.035 244.972C189.019 243.435 187.475 242.324 185.694 241.849Z" fill="#9E616A"/>
<path d="M175.042 259.525L162.84 264.144L162.528 264.75C162.157 265.469 161.649 266.107 161.032 266.63C160.414 267.152 159.7 267.548 158.93 267.794C158.16 268.04 157.349 268.132 156.544 268.065C155.738 267.998 154.954 267.773 154.235 267.402L126.808 277.786C126.808 277.786 114.56 265.525 105.84 254.583L108.812 236.297C109.5 232.054 110.963 227.975 113.128 224.262C131.012 228.184 141.277 253.192 141.277 253.192L173.508 247.041L175.042 259.525Z" fill="#56BF92"/>
<path d="M110.865 208.101C105.946 209.43 100.523 207.663 96.6838 204.311C92.8448 200.96 90.4434 196.211 89.0597 191.305C88.0463 187.712 87.5658 183.724 89.1649 180.351C90.7641 176.978 95.0681 174.703 98.3886 176.406C96.3402 174.019 97.3636 170.071 99.756 168.028C102.148 165.986 105.433 165.401 108.562 165.08C113.103 164.616 117.793 164.564 122.114 166.035C126.435 167.507 130.361 170.724 131.713 175.085C133.094 175.728 134.65 175.895 136.136 175.56C137.622 175.224 138.955 174.405 139.926 173.23C140.176 174.579 139.975 175.973 139.354 177.196C138.732 178.419 137.725 179.403 136.489 179.996L143.109 177.849C144.248 180.26 142.253 183.244 139.701 184.016C137.15 184.788 134.396 183.944 131.975 182.828C129.554 181.713 127.208 180.303 124.578 179.868C121.949 179.433 118.86 180.278 117.643 182.651C117.006 183.893 116.973 185.349 116.603 186.695C116.233 188.042 115.296 189.438 113.905 189.548C113.025 189.618 112.164 189.149 111.288 189.245C110.749 189.351 110.254 189.612 109.862 189.995C109.469 190.378 109.197 190.868 109.079 191.403C108.861 192.478 108.858 193.586 109.071 194.662L110.753 207.52L110.865 208.101Z" fill="#2F2E41"/>
<path d="M135.552 305.805L134.512 304.241L126.919 292.848L126.766 292.624L129.114 280.441L129.844 276.637L131.44 268.361L130.977 249.415L130.644 236.011L130.595 233.907L128.912 228.774C128.114 226.374 126.832 224.163 125.146 222.278C123.459 220.394 121.404 218.875 119.107 217.817L107.777 212.629C106.444 212.022 104.924 211.97 103.552 212.484C102.18 212.997 101.068 214.035 100.461 215.369C100.41 215.48 100.363 215.593 100.32 215.708C98.7676 215.921 92.0294 217.054 86.3154 221.489C82.3123 224.536 79.5178 228.903 78.4278 233.815C78.417 233.853 78.4115 233.891 78.4006 233.929C77.6435 237.313 77.077 242.653 76.712 249.889C76.4669 254.673 76.3125 260.278 76.249 266.704C76.1473 277.415 76.7496 288.122 78.052 298.754C78.1773 299.768 78.308 300.776 78.4442 301.789C78.5586 302.639 79.3757 303.451 80.1655 304.23C80.89 304.944 81.6362 305.685 81.7397 306.356C81.8323 306.944 81.4565 307.56 81.0098 308.203C80.9553 308.284 80.8954 308.366 80.8409 308.448C80.2853 309.238 79.7134 310.061 79.8605 310.927C80.2036 312.878 80.4052 314.861 80.5958 316.779C80.8087 319.42 81.1908 322.045 81.7397 324.637C81.9304 325.432 82.1483 326.233 82.3934 327.034C82.9653 328.914 83.6571 330.788 84.3326 332.619C84.9154 334.21 85.5201 335.845 86.0321 337.458C86.1301 337.757 86.2228 338.052 86.3099 338.346L86.3535 338.498L86.5115 338.526H86.5224C86.7369 338.143 86.9926 337.785 87.285 337.458C87.2982 337.437 87.3147 337.419 87.334 337.403C87.4102 337.311 87.4974 337.213 87.5954 337.109C88.7884 335.807 91.3812 333.469 97.0572 329.53C98.3264 328.652 99.7481 327.699 101.339 326.653C107.173 322.833 115.322 317.858 126.706 311.434C129.56 309.821 132.624 308.116 135.896 306.317L135.552 305.805Z" fill="#56BF92"/>
<path d="M196.653 425.67C195.33 424.341 193.757 423.287 192.024 422.57C190.292 421.853 188.435 421.486 186.56 421.491L180.639 417.001L179.86 416.407L174.587 418.554C176.428 419.365 178.291 420.156 180.159 420.918C186.004 423.305 191.972 425.437 198.064 427.315C197.636 426.732 197.164 426.182 196.653 425.67Z" fill="#2F2E41"/>
<path d="M328.165 409.106L320.749 405.558L330.936 374.551L341.881 379.788L328.165 409.106Z" fill="#FFB6B6"/>
<path d="M377.881 404.109C375.724 405.455 373.539 406.762 371.328 408.032V408.048L371.295 408.054L371.284 408.059L370.445 408.266L369.241 405.084L366.463 397.744L358.892 377.747L370.663 374.843L371.328 377.54L376.306 397.739L377.734 403.515L377.881 404.109Z" fill="#FFB6B6"/>
<path d="M347.859 274.337C348.916 276.055 350.604 277.292 352.56 277.783C354.517 278.274 356.588 277.981 358.331 276.965C358.682 276.753 359.015 276.512 359.325 276.245L382.77 289.704L381.752 275.888L359.644 265.225C358.441 264.017 356.871 263.241 355.181 263.021C353.49 262.801 351.774 263.148 350.302 264.008C348.616 265.02 347.402 266.661 346.926 268.569C346.45 270.477 346.751 272.495 347.763 274.181C347.794 274.234 347.826 274.286 347.859 274.337Z" fill="#FFB6B6"/>
<path d="M372.691 284.636L376.835 287.163L395.448 298.516C396.669 299.281 398.03 299.797 399.451 300.036C400.872 300.275 402.327 300.231 403.731 299.907C405.135 299.584 406.462 298.987 407.636 298.15C408.81 297.314 409.808 296.254 410.572 295.032L410.578 295.023C411.956 292.751 412.444 290.05 411.947 287.44L403.674 246.098C403.369 244.475 402.716 242.937 401.762 241.589C400.807 240.242 399.573 239.116 398.144 238.29C396.715 237.463 395.124 236.955 393.48 236.8C391.836 236.645 390.179 236.847 388.62 237.392C386.001 238.313 383.83 240.198 382.55 242.662C381.27 245.127 380.977 247.987 381.731 250.661L390.381 280.001L377.122 273.817L372.691 284.636Z" fill="#56BF92"/>
<path d="M449.01 325.4C449.004 325.383 448.994 325.323 448.977 325.231L448.961 325.171C448.923 324.975 448.879 324.757 448.83 324.517C447.719 318.996 446.291 313.544 444.554 308.187C443.525 304.906 442.162 301.74 440.485 298.738C440.431 298.64 440.371 298.542 440.311 298.444L440.109 298.117L438.415 298.738L438.35 298.76L412.596 308.203L405.149 310.933L404.915 311.02L403.646 316.197L385.839 313.892L371.328 312.012L367.161 311.472C365.354 311.237 363.519 311.363 361.762 311.844C360.005 312.325 358.361 313.151 356.925 314.273C355.428 315.435 354.176 316.883 353.244 318.533C352.312 320.183 351.717 322.002 351.495 323.885C351.44 324.299 351.407 324.719 351.391 325.133L350.133 372.086V372.146L350.716 373.312L362.89 397.744H371.328L376.306 397.739H380.354L371.938 376.439L372.128 376.151C372.92 374.936 373.42 373.555 373.587 372.115C373.754 370.675 373.585 369.215 373.093 367.852L374.04 365.106C376.007 359.433 375.075 356.709 373.899 353.265C372.842 350.465 372.221 347.519 372.058 344.531L371.862 340.646C376.802 341.512 381.405 342.477 385.839 343.446C387.321 343.768 388.788 344.093 390.24 344.422C394.375 345.343 398.368 346.231 402.279 346.972C410.199 348.481 417.787 349.402 425.582 348.83C425.734 348.819 425.887 348.808 426.039 348.792C427.935 348.639 429.841 348.394 431.77 348.051C432.854 347.855 433.943 347.631 435.043 347.37C435.348 347.293 435.659 347.217 435.964 347.141C436.811 346.917 437.627 346.59 438.393 346.165C439.484 345.557 440.498 344.821 441.417 343.975C441.422 343.969 441.427 343.969 441.427 343.964C442.931 341.828 444.396 339.659 445.823 337.458C446.591 336.276 447.354 335.082 448.1 333.884C449.19 330.892 449.604 327.873 449.01 325.4Z" fill="#2F2E41"/>
<path d="M449.19 316.578C449.108 316.229 449.004 315.875 448.896 315.532C448.031 312.932 447.023 310.382 445.878 307.892C444.592 305.059 443.051 302.024 441.215 298.738C440.327 297.147 439.372 295.493 438.35 293.774C437.838 292.914 437.306 292.036 436.754 291.143C436.732 291.102 436.709 291.062 436.683 291.023L436.525 290.761L411.043 294.172L401.554 295.442L400.988 300.171L400.851 301.343C400.846 301.343 400.846 301.343 400.851 301.348L400.47 304.541V304.547L399.964 308.764L399.92 308.759L385.839 306.934L371.328 305.054L363.533 304.046C361.726 303.81 359.891 303.936 358.134 304.417C356.377 304.898 354.733 305.724 353.298 306.846C351.8 308.008 350.549 309.456 349.616 311.106C348.684 312.756 348.089 314.576 347.867 316.458C347.818 316.84 347.785 317.232 347.769 317.619L340.415 335.05C336.015 345.474 333.212 356.504 332.103 367.765L326.71 385.01L327.478 385.081L338.906 386.144L341.924 386.427L348.569 376.723C349.327 375.617 350.046 374.478 350.716 373.312C351.819 371.407 352.799 369.434 353.652 367.405L368.027 333.186C369.138 333.377 370.238 333.559 371.328 333.731C376.366 334.548 381.204 335.215 385.839 335.731C400.911 337.415 413.963 337.545 425.582 336.118C428.844 335.72 431.998 335.197 435.043 334.548C436.16 334.314 437.262 334.062 438.35 333.791C438.606 333.731 438.856 333.671 439.107 333.606C441.358 333.025 443.428 331.889 445.126 330.301C446.825 328.713 448.099 326.724 448.83 324.517C449.704 321.959 449.828 319.205 449.19 316.578Z" fill="#2F2E41"/>
<path d="M395.004 213.665C404.738 213.665 412.63 205.595 412.63 195.64C412.63 185.686 404.738 177.616 395.004 177.616C385.269 177.616 377.378 185.686 377.378 195.64C377.378 205.595 385.269 213.665 395.004 213.665Z" fill="#FFB6B6"/>
<path d="M436.857 291.747C436.83 291.545 436.797 291.344 436.754 291.142C436.334 288.93 435.245 286.761 434.194 284.658C433.191 282.653 432.238 280.757 431.846 278.871C431.459 277.013 431.688 275.15 431.911 273.352C432.151 271.401 432.402 269.385 431.84 267.429C428.995 257.439 425.087 247.783 420.183 238.626C418.946 234.6 416.574 231.016 413.352 228.304C410.13 225.592 406.195 223.867 402.017 223.336C402.505 222.425 402.708 221.389 402.6 220.361C402.532 219.697 402.332 219.053 402.014 218.467C401.695 217.88 401.263 217.363 400.743 216.945C400.243 216.542 399.668 216.242 399.052 216.063C398.436 215.883 397.791 215.827 397.153 215.899L388.96 216.82C387.647 216.984 386.452 217.661 385.635 218.703C384.817 219.745 384.445 221.067 384.597 222.383C384.643 222.788 384.734 223.186 384.869 223.571C377.265 233.259 373.36 242.086 373 250.434V250.439C372.956 251.403 372.962 252.369 373.016 253.332C373.189 256.449 373.866 259.516 375.021 262.416C376.385 265.765 378.211 268.907 380.446 271.75C380.904 272.327 381.378 272.894 381.868 273.45C382.326 273.995 382.838 274.567 383.404 275.166L384.837 277.411L386.171 279.509L393.307 295.981L396.94 295.861L397.447 299.484L397.567 300.329L399.92 308.758L400.094 309.391L403.314 307.859L422.52 298.738L436.879 291.916L436.857 291.747Z" fill="#56BF92"/>
<path opacity="0.2" d="M375.237 262.329C376.874 266.342 379.177 270.049 382.047 273.296C382.538 273.883 383.057 274.46 383.6 275.038L386.389 279.414C396.667 271.708 404.995 241.364 404.995 241.364L393.398 239.107L375.237 262.329Z" fill="black"/>
<path d="M368.216 215.349C369.231 217.094 369.526 219.166 369.037 221.125C368.549 223.084 367.315 224.775 365.599 225.838C365.247 226.049 364.878 226.23 364.496 226.38L365.317 253.408L353.616 246.04L354.63 221.503C354.132 219.87 354.189 218.119 354.791 216.521C355.393 214.924 356.507 213.571 357.958 212.673C359.636 211.658 361.649 211.351 363.553 211.82C365.458 212.289 367.098 213.495 368.113 215.174C368.148 215.232 368.182 215.29 368.216 215.349Z" fill="#FFB6B6"/>
<path d="M366.345 243.205L353.478 245.036L354.031 271.691C354.063 273.592 354.58 275.454 355.534 277.099C356.488 278.744 357.847 280.118 359.481 281.089C361.478 282.264 363.802 282.758 366.104 282.497C368.405 282.236 370.56 281.233 372.242 279.64L402.621 250.411C404.758 248.382 406.037 245.612 406.195 242.669C406.353 239.726 405.378 236.835 403.47 234.589C401.6 232.376 398.928 230.995 396.041 230.752C393.154 230.509 390.289 231.424 388.075 233.294C387.989 233.367 387.903 233.442 387.819 233.517C387.519 233.786 387.233 234.07 386.964 234.37L366.904 257.453L366.345 243.205Z" fill="#56BF92"/>
<path d="M378.208 403.427L377.734 403.514L371.328 404.697L369.242 405.084L365.957 405.689L367.123 410.391C368.522 409.634 369.906 408.854 371.284 408.059L371.295 408.053L371.328 408.048V408.032C373.539 406.767 375.724 405.46 377.881 404.108C378.033 404.016 378.186 403.923 378.338 403.82L378.208 403.427Z" fill="#2F2E41"/>
<path d="M330.534 404.043L322.51 400.196L321.252 399.591L319.242 404.528L305.21 407.617C304.516 407.77 303.889 408.14 303.421 408.674C302.952 409.208 302.666 409.878 302.606 410.585C302.545 411.293 302.712 412.002 303.082 412.608C303.453 413.214 304.008 413.686 304.665 413.955L318.376 419.551L322.728 415.633L321.66 420.891L326.824 423L332.484 404.98L330.534 404.043Z" fill="#2F2E41"/>
<path d="M442.17 187.823C439.174 184.328 437.749 179.691 435.354 175.723C432.959 171.754 428.791 168.202 424.387 169.125C421.352 169.762 419.006 172.441 417.819 175.428C416.631 178.415 416.409 181.71 416.201 184.937C416.274 178.305 411.906 171.876 405.889 169.759C399.873 167.643 392.672 170.004 388.891 175.332C387.242 173.802 385.088 172.931 382.839 172.884C380.59 172.837 378.402 173.616 376.689 175.075C373.307 178.099 372.559 183.854 375.046 187.71C377.533 191.566 382.919 193.003 386.871 190.864L388.269 192.15C387.482 194.902 389.007 198.152 391.571 199.188C393.651 200.028 396.586 199.888 397.364 202.071C397.907 203.596 396.891 205.224 395.81 206.396C394.729 207.567 393.446 208.778 393.316 210.399C393.12 212.846 395.648 214.56 397.946 215.076C403.486 216.321 409.634 213.754 412.827 208.863C412.889 208.769 412.956 208.675 413.028 208.58C414.82 206.288 416.125 203.655 416.865 200.841C417.605 198.027 417.764 195.092 417.332 192.215C417.152 191.085 417.333 190.244 418.112 189.976C421.48 188.819 430.915 191.248 433.771 193.443C436.626 195.638 438.913 198.543 441.664 200.879C444.414 203.216 447.92 205.018 451.412 204.382C454.209 203.872 456.589 201.841 458.189 199.391C459.79 196.941 460.711 194.085 461.536 191.246C455.351 194.82 446.886 193.324 442.17 187.823Z" fill="#2F2E41"/>
<path d="M385.837 295.265V398.903C383.865 400.26 381.868 401.58 379.845 402.864V302.136C379.845 299.216 378.865 296.845 377.661 296.84H286.971C285.761 296.845 284.786 299.216 284.781 302.136V435.884C283.572 436.004 282.362 436.119 281.153 436.217C280.652 436.26 280.145 436.299 279.644 436.337C279.356 435.803 279.072 435.263 278.789 434.718V295.265C278.789 294.459 278.822 293.647 278.876 292.846C279.366 286.046 281.801 281.076 284.65 281.065H379.976C380.321 281.068 380.662 281.14 380.978 281.278C383.364 282.291 385.249 286.738 385.723 292.486C385.799 293.402 385.842 294.333 385.837 295.265Z" fill="#E4E4E4"/>
<path d="M240.327 295.265V435.47C240.245 435.601 240.163 435.726 240.081 435.857C238.033 435.65 235.994 435.412 233.964 435.143V302.136C233.964 299.216 232.924 296.845 231.644 296.84H135.387C134.107 296.845 133.066 299.216 133.066 302.136V394.473C130.915 392.887 128.794 391.262 126.704 389.596V295.265C126.704 294.459 126.737 293.647 126.797 292.846C127.314 286.046 129.902 281.076 132.93 281.065H234.1C234.465 281.066 234.826 281.139 235.163 281.278C237.696 282.291 239.7 286.738 240.207 292.486C240.288 293.402 240.327 294.333 240.327 295.265Z" fill="#E4E4E4"/>
<path d="M208.068 248.672L214.376 276.436L218.407 280.853H221.315L209.33 230.372L208.737 238.948V238.954L208.068 248.672Z" fill="#3F3D56"/>
<path d="M229.075 282.272C229.057 282.229 229.033 282.188 229.004 282.152C228.946 282.021 228.863 281.902 228.759 281.803L228.024 281.067L224.156 277.193C223.872 276.915 223.491 276.759 223.094 276.757H223.077L220.348 276.774L218.001 276.79L214.722 276.812L192.388 276.954L177.708 277.046C177.31 277.051 176.931 277.212 176.65 277.494C176.37 277.777 176.212 278.158 176.21 278.555C176.212 278.776 176.261 278.993 176.352 279.193L176.635 279.798L177.229 281.067L178.002 282.729L178.383 283.547C178.505 283.807 178.698 284.027 178.94 284.181C179.183 284.336 179.464 284.418 179.751 284.418H227.691C227.944 284.414 228.191 284.347 228.411 284.224C228.631 284.101 228.818 283.926 228.955 283.714C229.091 283.502 229.174 283.259 229.195 283.008C229.216 282.756 229.175 282.503 229.075 282.272H229.075Z" fill="#3F3D56"/>
<path opacity="0.17" d="M178.003 282.728L178.381 283.548C178.505 283.808 178.698 284.027 178.94 284.181C179.183 284.335 179.463 284.418 179.75 284.419H227.693C227.945 284.415 228.192 284.348 228.412 284.225C228.633 284.102 228.819 283.927 228.956 283.715C229.092 283.503 229.175 283.261 229.195 283.009C229.216 282.758 229.174 282.505 229.074 282.274C229.057 282.23 229.034 282.19 229.005 282.154L178.003 282.728Z" fill="black"/>
<path opacity="0.17" d="M208.737 238.948V238.954L219 280.853H221.315L209.33 230.372L208.737 238.948Z" fill="black"/>
<path d="M224.837 121.693L223.333 121.492C222.921 121.438 222.504 121.55 222.173 121.802L221.274 122.494L211.268 135.016C210.938 135.271 210.722 135.648 210.669 136.062L210.108 140.323L196.141 246.625C196.091 247.019 196.191 247.417 196.419 247.742L202.999 265.887L203.195 266.17L203.62 266.775C203.839 267.082 204.159 267.302 204.524 267.396L205.478 267.636C205.694 267.69 205.92 267.698 206.14 267.659C206.359 267.619 206.568 267.533 206.752 267.407C206.937 267.283 207.093 267.12 207.21 266.93C207.326 266.74 207.401 266.528 207.428 266.307L209.133 253.349V253.344L210.222 245.029L211.143 238.016V238.011L226.199 123.459C226.253 123.045 226.141 122.627 225.887 122.296C225.633 121.965 225.258 121.749 224.845 121.694L224.837 121.693Z" fill="#3F3D56"/>
<path opacity="0.17" d="M221.272 122.495L202.998 265.889L203.197 266.17L203.62 266.773C203.839 267.081 204.159 267.301 204.525 267.395L205.479 267.635C205.695 267.688 205.92 267.696 206.139 267.656C206.359 267.617 206.567 267.532 206.751 267.407C206.935 267.281 207.09 267.118 207.207 266.929C207.324 266.739 207.4 266.527 207.429 266.306L226.197 123.46C226.251 123.046 226.139 122.626 225.884 122.294C225.63 121.962 225.254 121.745 224.839 121.691L223.332 121.493C223.127 121.465 222.919 121.478 222.72 121.532C222.521 121.585 222.334 121.678 222.171 121.805L221.272 122.495Z" fill="black"/>
<path d="M220.734 126.595L211.036 140.441L199.51 228.169L205.759 240.57L220.734 126.595Z" fill="#56BF92"/>
<path d="M315.198 248.672L308.89 276.436L304.859 280.853H301.95L313.936 230.372L314.529 238.948V238.954L315.198 248.672Z" fill="#3F3D56"/>
<path d="M345.557 277.046L308.549 276.812L305.264 276.79L302.922 276.774L300.193 276.757H300.171C299.775 276.758 299.396 276.915 299.115 277.193L294.506 281.803C294.404 281.904 294.321 282.022 294.261 282.152C294.232 282.188 294.209 282.229 294.19 282.272C294.091 282.503 294.049 282.756 294.07 283.008C294.091 283.259 294.174 283.502 294.31 283.714C294.447 283.926 294.634 284.101 294.854 284.224C295.075 284.347 295.322 284.414 295.574 284.418H343.514C343.802 284.417 344.084 284.335 344.327 284.181C344.57 284.026 344.764 283.807 344.887 283.547L345.263 282.729L346.037 281.067L346.914 279.193C347.007 278.994 347.056 278.776 347.055 278.555C347.053 278.158 346.895 277.777 346.615 277.494C346.335 277.212 345.955 277.051 345.557 277.046Z" fill="#3F3D56"/>
<path opacity="0.17" d="M345.263 282.728L344.884 283.548C344.761 283.808 344.568 284.027 344.325 284.181C344.083 284.335 343.803 284.418 343.516 284.419H295.573C295.321 284.415 295.074 284.348 294.854 284.225C294.633 284.102 294.447 283.927 294.31 283.715C294.174 283.503 294.091 283.261 294.071 283.009C294.05 282.758 294.092 282.505 294.192 282.274C294.209 282.23 294.232 282.19 294.261 282.154L345.263 282.728Z" fill="black"/>
<path opacity="0.17" d="M314.529 238.948V238.954L304.265 280.853H301.95L313.936 230.372L314.529 238.948Z" fill="black"/>
<path d="M327.124 246.625L312.596 136.062C312.543 135.647 312.328 135.271 311.997 135.016L301.996 122.494L301.097 121.802C300.764 121.55 300.346 121.438 299.932 121.491L298.428 121.693C298.014 121.747 297.637 121.963 297.382 122.294C297.126 122.625 297.013 123.044 297.066 123.458L312.122 238.016V238.021L313.043 245.028L314.138 253.349V253.36L315.837 266.306C315.864 266.528 315.939 266.741 316.057 266.931C316.175 267.121 316.332 267.284 316.518 267.407C316.701 267.533 316.909 267.619 317.128 267.658C317.347 267.698 317.572 267.69 317.788 267.636L318.741 267.396C319.106 267.302 319.426 267.082 319.645 266.775L320.07 266.17L320.266 265.887L326.846 247.742C327.077 247.418 327.176 247.019 327.124 246.625Z" fill="#3F3D56"/>
<path opacity="0.17" d="M301.994 122.495L320.268 265.889L320.069 266.17L319.646 266.773C319.427 267.081 319.107 267.301 318.741 267.395L317.787 267.635C317.571 267.688 317.346 267.696 317.126 267.656C316.907 267.617 316.699 267.532 316.515 267.406C316.331 267.281 316.175 267.118 316.059 266.929C315.942 266.739 315.866 266.527 315.837 266.306L297.069 123.46C297.014 123.046 297.127 122.626 297.382 122.294C297.636 121.962 298.012 121.745 298.427 121.691L299.934 121.493C300.139 121.465 300.347 121.478 300.546 121.532C300.745 121.585 300.932 121.678 301.095 121.805L301.994 122.495Z" fill="black"/>
<path d="M302.532 126.595L312.23 140.441L323.756 228.169L317.507 240.57L302.532 126.595Z" fill="#56BF92"/>
<path d="M122.288 303.468C122.29 303.742 122.266 304.016 122.218 304.285C122.196 304.416 122.169 304.541 122.136 304.667C121.871 305.68 121.277 306.576 120.448 307.216C119.619 307.856 118.602 308.203 117.555 308.203H97.0572V357.107C97.0581 358.14 96.7193 359.145 96.093 359.967C95.6246 359.417 95.1616 358.867 94.704 358.311C92.2528 355.379 89.8832 352.382 87.5954 349.32V308.203H78.4442C77.2239 308.202 76.0512 307.73 75.1709 306.885C74.2907 306.039 73.7709 304.886 73.7203 303.667C73.6697 302.447 74.0921 301.255 74.8993 300.34C75.7065 299.425 76.836 298.857 78.052 298.755C78.1827 298.744 78.3134 298.738 78.4442 298.738H117.555C118.81 298.738 120.013 299.236 120.901 300.123C121.788 301.01 122.287 302.213 122.288 303.468Z" fill="#3F3D56"/>
<path d="M448.917 303.468C448.917 304.426 448.627 305.362 448.084 306.152C447.542 306.942 446.772 307.549 445.878 307.892C445.453 308.055 445.007 308.154 444.554 308.187C444.434 308.198 444.309 308.203 444.189 308.203H435.043V352.59C434.907 352.769 434.765 352.949 434.624 353.129C432.472 355.881 430.255 358.578 427.973 361.221C427.244 360.81 426.638 360.212 426.218 359.489C425.798 358.766 425.578 357.943 425.582 357.107V308.203H405.078C404.473 308.205 403.874 308.088 403.314 307.86C402.608 307.578 401.981 307.129 401.486 306.552C400.991 305.975 400.642 305.287 400.47 304.547V304.541C400.216 303.465 400.351 302.334 400.851 301.348C400.846 301.343 400.846 301.343 400.851 301.343C401.068 300.909 401.351 300.512 401.69 300.166C402.131 299.714 402.658 299.355 403.24 299.11C403.822 298.865 404.447 298.738 405.078 298.738H444.189C445.443 298.738 446.645 299.236 447.532 300.123C448.419 301.009 448.917 302.212 448.917 303.466L448.917 303.468Z" fill="#3F3D56"/>
<path d="M448.604 212.288C446.657 212.288 444.73 212.671 442.931 213.416C441.133 214.162 439.498 215.254 438.122 216.631C436.745 218.008 435.653 219.643 434.908 221.442C434.163 223.241 433.78 225.169 433.78 227.117V227.117C433.78 230.557 434.976 233.889 437.163 236.544C439.349 239.199 442.39 241.012 445.766 241.671V265.924H455.228V212.288H448.604Z" fill="#3F3D56"/>
<path d="M189.782 266.435C188.838 265.881 187.785 265.541 186.695 265.438C185.606 265.335 184.507 265.473 183.476 265.841C182.446 266.209 181.508 266.798 180.73 267.568C179.952 268.337 179.352 269.268 178.972 270.295L161.88 270.962L159.577 278.926L183.876 280.17C185.643 280.694 187.54 280.551 189.208 279.769C190.876 278.987 192.2 277.62 192.928 275.927C193.656 274.234 193.738 272.332 193.158 270.583C192.578 268.834 191.377 267.358 189.782 266.435H189.782Z" fill="#9E616A"/>
<path d="M175.742 281.029L158.185 280.81L155.962 280.78L120.241 280.33C120.241 280.33 110.541 271.073 102.094 261.542L103.278 252.976C104.433 244.569 108.601 236.869 115.008 231.308C127.106 239.394 134.122 255.399 134.122 255.399L145.885 260.664C154.163 261.035 162.23 263.398 169.4 267.553L173.269 269.795L175.742 281.029Z" fill="#56BF92"/>
<path d="M230.905 434.72H294.234C289.914 435.352 285.555 435.852 281.155 436.219H243.984C239.582 435.854 235.223 435.354 230.905 434.72Z" fill="#CCCCCC"/>
<path d="M243.638 402.828C244.863 391.763 251.562 380.787 262.046 377.052C258.044 388.477 258.212 400.951 262.519 412.265C264.196 416.622 266.514 421.294 265.051 425.727C264.141 428.486 261.852 430.618 259.279 431.966C256.707 433.315 253.84 433.979 251.01 434.631L250.458 435.1C245.815 424.982 242.412 413.893 243.638 402.828Z" fill="#CCCCCC"/>
<path d="M262.153 377.259C256.111 384.216 252.415 392.899 251.588 402.077C251.375 404.049 251.474 406.043 251.882 407.985C252.34 409.863 253.293 411.585 254.641 412.971C255.872 414.288 257.284 415.493 258.174 417.087C258.617 417.909 258.881 418.816 258.95 419.748C259.018 420.68 258.888 421.616 258.57 422.495C257.833 424.704 256.346 426.517 254.83 428.239C253.148 430.151 251.37 432.11 250.677 434.625C250.593 434.929 250.125 434.781 250.209 434.477C251.414 430.103 255.61 427.571 257.574 423.619C258.491 421.775 258.857 419.643 257.949 417.722C257.155 416.042 255.7 414.798 254.442 413.475C253.107 412.142 252.118 410.503 251.563 408.7C251.058 406.786 250.882 404.799 251.043 402.825C251.335 398.376 252.325 394.001 253.975 389.859C255.833 385.122 258.488 380.737 261.823 376.896C262.03 376.658 262.358 377.023 262.153 377.259H262.153Z" fill="white"/>
<path d="M251.68 399.106C250.16 398.758 248.812 397.881 247.879 396.632C246.945 395.382 246.486 393.841 246.583 392.284C246.588 392.22 246.617 392.161 246.664 392.118C246.712 392.076 246.774 392.054 246.837 392.056C246.901 392.058 246.961 392.085 247.005 392.131C247.049 392.177 247.074 392.238 247.074 392.301C246.98 393.751 247.408 395.187 248.28 396.349C249.152 397.511 250.41 398.323 251.828 398.638C252.136 398.707 251.987 399.175 251.68 399.106H251.68Z" fill="white"/>
<path d="M253.929 412.385C256.644 410.714 258.63 408.08 259.49 405.009C259.575 404.704 260.043 404.852 259.958 405.156C259.057 408.35 256.985 411.087 254.155 412.82C253.885 412.985 253.66 412.549 253.929 412.385Z" fill="white"/>
<path d="M256.294 385.581C256.855 385.838 257.47 385.952 258.085 385.912C258.701 385.873 259.296 385.681 259.819 385.354C260.087 385.186 260.311 385.622 260.046 385.79C259.466 386.148 258.808 386.359 258.128 386.404C257.449 386.449 256.769 386.327 256.147 386.049C256.086 386.027 256.036 385.984 256.006 385.926C255.976 385.869 255.969 385.803 255.987 385.741C256.007 385.679 256.05 385.627 256.108 385.597C256.165 385.567 256.232 385.561 256.295 385.581L256.294 385.581Z" fill="white"/>
<path d="M294.412 396.353C294.248 396.463 294.084 396.573 293.92 396.687C291.721 398.176 289.647 399.841 287.718 401.665C287.567 401.804 287.415 401.947 287.268 402.09C282.668 406.535 278.932 411.796 276.252 417.606C275.187 419.919 274.3 422.309 273.598 424.756C272.629 428.136 271.847 431.878 269.876 434.659C269.674 434.951 269.453 435.231 269.216 435.496L251.073 435.739C251.032 435.718 250.99 435.702 250.948 435.682L250.224 435.725C250.252 435.596 250.283 435.463 250.31 435.335C250.326 435.26 250.346 435.185 250.361 435.11C250.373 435.06 250.385 435.011 250.392 434.965C250.396 434.948 250.4 434.932 250.404 434.919C250.412 434.874 250.424 434.832 250.432 434.791C250.604 434.047 250.781 433.303 250.965 432.559C250.965 432.555 250.965 432.555 250.969 432.551C252.311 426.87 254.322 421.369 256.96 416.162C257.041 416.008 257.121 415.849 257.21 415.695C258.433 413.389 259.842 411.187 261.424 409.111C262.294 407.977 263.22 406.888 264.2 405.848C266.737 403.165 269.679 400.898 272.92 399.13C279.382 395.606 286.898 394.189 293.88 396.195C294.059 396.246 294.233 396.298 294.412 396.353Z" fill="#CCCCCC"/>
<path d="M294.374 396.584C285.364 398.5 277.186 403.207 271.002 410.037C269.644 411.483 268.523 413.135 267.68 414.931C266.915 416.707 266.64 418.655 266.882 420.574C267.072 422.367 267.475 424.179 267.226 425.988C267.084 426.911 266.75 427.795 266.243 428.58C265.737 429.365 265.07 430.035 264.287 430.544C262.369 431.864 260.09 432.416 257.844 432.879C255.349 433.392 252.75 433.885 250.684 435.476C250.434 435.669 250.149 435.269 250.399 435.076C253.994 432.309 258.868 432.815 262.815 430.842C264.657 429.922 266.233 428.441 266.664 426.36C267.041 424.54 266.628 422.671 266.42 420.856C266.156 418.988 266.353 417.084 266.995 415.31C267.744 413.477 268.799 411.785 270.116 410.306C273.027 406.93 276.451 404.032 280.261 401.719C284.596 399.056 289.354 397.154 294.33 396.095C294.638 396.03 294.68 396.519 294.374 396.584H294.374Z" fill="white"/>
<path d="M272.863 407.721C271.859 406.527 271.311 405.015 271.318 403.455C271.324 401.895 271.885 400.388 272.9 399.203C273.106 398.964 273.487 399.274 273.281 399.513C272.334 400.614 271.811 402.018 271.808 403.471C271.805 404.924 272.321 406.33 273.263 407.436C273.467 407.676 273.067 407.96 272.863 407.721Z" fill="white"/>
<path d="M266.666 419.677C269.84 419.978 273.011 419.071 275.546 417.137C275.798 416.945 276.082 417.345 275.831 417.536C273.189 419.544 269.887 420.481 266.585 420.161C266.27 420.13 266.353 419.646 266.666 419.677V419.677Z" fill="white"/>
<path d="M284.688 399.7C284.981 400.243 285.403 400.705 285.918 401.043C286.433 401.382 287.024 401.588 287.639 401.642C287.954 401.669 287.87 402.153 287.557 402.126C286.879 402.063 286.227 401.835 285.657 401.462C285.087 401.089 284.617 400.582 284.289 399.985C284.253 399.931 284.239 399.866 284.25 399.802C284.26 399.739 284.295 399.682 284.346 399.643C284.399 399.605 284.465 399.59 284.529 399.601C284.593 399.612 284.65 399.647 284.688 399.7Z" fill="white"/>
<path d="M303.823 411.768C307.01 411.768 309.593 409.184 309.593 405.997C309.593 402.809 307.01 400.225 303.823 400.225C300.636 400.225 298.053 402.809 298.053 405.997C298.053 409.184 300.636 411.768 303.823 411.768Z" fill="#CCCCCC"/>
<path d="M322.661 428.625C322.307 428.729 321.948 428.832 321.588 428.93C318.325 429.846 315.039 430.683 311.729 431.442C311.348 430.673 311.143 429.828 311.13 428.969C311.117 428.11 311.296 427.26 311.654 426.479C312.011 425.698 312.538 425.007 313.197 424.456C313.855 423.905 314.628 423.508 315.459 423.294C316.291 423.08 317.159 423.054 318.002 423.218C318.845 423.382 319.64 423.733 320.33 424.243C321.02 424.754 321.587 425.413 321.991 426.171C322.394 426.929 322.623 427.767 322.661 428.625Z" fill="#CCCCCC"/>
<path d="M355.628 416.234C355.186 416.441 354.745 416.648 354.304 416.85C353.825 417.079 353.34 417.297 352.861 417.515C352.321 417.76 351.787 418 351.248 418.24C349.222 419.144 347.174 420.016 345.12 420.855C345.093 420.811 345.066 420.762 345.038 420.713C344.319 419.365 344.164 417.786 344.607 416.323C345.05 414.86 346.055 413.632 347.401 412.909C348.747 412.187 350.325 412.027 351.789 412.467C353.253 412.906 354.482 413.908 355.208 415.254C355.375 415.568 355.515 415.896 355.628 416.234Z" fill="#CCCCCC"/>
<path d="M324.174 397.601C327.361 397.601 329.945 395.017 329.945 391.829C329.945 388.641 327.361 386.057 324.174 386.057C320.988 386.057 318.404 388.641 318.404 391.829C318.404 395.017 320.988 397.601 324.174 397.601Z" fill="#CCCCCC"/>
<path d="M271.245 75.5772C237.303 84.5079 199.696 89.9405 161.457 91.428C155.853 91.7334 150.235 91.6952 144.636 91.3136C132.331 90.2783 121.791 86.4096 110.052 84.2954C104.409 83.2819 98.1227 82.5409 92.4413 81.4457C93.7541 79.8165 95.0904 78.2072 96.4504 76.618C108.701 77.6532 121.142 81.0424 133.54 82.6172C154.615 85.298 178.229 82.3066 194.205 74.9288C201.957 71.3489 207.894 66.8808 215.618 63.2846C216.669 62.7451 217.807 62.3964 218.979 62.2547C221.425 62.0313 223.571 63.0176 225.32 63.9003C238.278 70.4444 257.093 75.7625 274.557 72.8364C275.859 73.8554 273.385 75.016 271.245 75.5772Z" fill="white"/>
<path d="M348.524 98.6068C348.683 98.5777 348.843 98.555 349.003 98.5273C348.332 98.1114 347.7 97.6353 347.116 97.105L348.524 98.6068Z" fill="white"/>
<path d="M453.066 111.518C445.772 112.101 438.44 112.535 431.07 112.82C425.466 113.123 419.849 113.085 414.249 112.706C401.944 111.665 391.404 107.802 379.665 105.688C368.907 103.754 355.834 102.822 349.003 98.5281C366.657 95.4713 384.949 101.694 403.153 104.01C417.879 105.821 432.806 105.084 447.281 101.83C449.296 105.001 451.225 108.231 453.066 111.518Z" fill="white"/>
<path d="M288.876 193.253C271.789 134.586 261.732 74.0962 261.732 12.9897V8.56104H256.055V12.9896C256.055 74.0962 245.997 134.586 228.911 193.254C228.085 196.094 227.666 199.037 227.668 201.995V201.995C227.668 203.113 227.888 204.221 228.316 205.255C228.744 206.288 229.371 207.227 230.162 208.018C230.953 208.809 231.892 209.437 232.925 209.865C233.958 210.293 235.066 210.514 236.184 210.514H247.539C247.539 212.005 247.832 213.482 248.403 214.86C248.974 216.238 249.81 217.49 250.864 218.545C251.919 219.6 253.171 220.436 254.548 221.007C255.926 221.578 257.402 221.872 258.894 221.872C260.385 221.872 261.861 221.578 263.239 221.007C264.616 220.436 265.868 219.6 266.923 218.545C267.977 217.49 268.813 216.238 269.384 214.86C269.955 213.482 270.248 212.005 270.248 210.514H279.084V234.994C277.838 235.031 276.653 235.543 275.772 236.426C274.891 237.309 274.382 238.495 274.348 239.742C274.314 240.989 274.759 242.201 275.591 243.131C276.423 244.06 277.578 244.635 278.821 244.739C280.064 244.842 281.299 244.466 282.273 243.687C283.247 242.909 283.886 241.787 284.059 240.551C284.232 239.316 283.926 238.062 283.203 237.045C282.481 236.029 281.397 235.327 280.174 235.085V210.514H281.603C283.862 210.514 286.028 209.616 287.625 208.018C289.222 206.421 290.119 204.254 290.119 201.995V201.995C290.121 199.037 289.702 196.094 288.876 193.253Z" fill="white"/>
</g>
<defs>
<clipPath id="clip0_34_321">
<rect width="481" height="437" fill="white"/>
</clipPath>
</defs>
</svg>
